<svg width="273" height="95" viewBox="0 0 273 95" fill="none" xmlns="http://www.w3.org/2000/svg">
<path d="M107.899 7.39296L106.861 1.16669H146.917C146.917 1.16669 164.143 1.78936 178.463 6.66661C192.68 11.5439 225.368 30.2226 225.368 30.2226C225.368 30.2226 237.924 32.7132 250.688 37.5905C263.452 42.5715 266.15 45.7883 266.15 45.7883L250.377 64.1557C250.377 64.1557 157.709 53.6749 148.266 45.2694C138.927 36.7602 107.899 7.39296 107.899 7.39296Z" fill="#993DFF"/>
<path d="M161.341 30.9493L224.226 32.5059C224.226 32.5059 199.01 17.044 181.057 10.5064C163.105 3.96885 123.775 5.52536 123.775 5.52536L161.341 30.9493Z" fill="#5712A6"/>
<path d="M229.824 88.853L222.768 85.8437H37.1211L115.676 26.9017C115.676 26.9017 185.825 32.8166 194.646 45.5805C203.466 58.3443 229.824 88.853 229.824 88.853Z" fill="#5712A6"/>
<path d="M97.8293 52.3258C97.5526 52.3258 97.2411 52.3258 96.8952 52.3258C87.9709 52.3258 80.707 61.769 80.707 73.3914C80.707 85.0138 87.9709 94.457 96.8952 94.457H105.197C114.225 94.457 121.489 85.0138 121.489 73.3914C121.489 62.1841 114.744 52.9484 106.235 52.3258C105.889 52.3258 105.543 52.3258 105.197 52.3258C104.92 52.3258 104.609 52.3258 104.263 52.3258H97.8293Z" fill="#5712A6"/>
<path d="M231.69 52.3258C231.344 52.3258 230.998 52.3258 230.652 52.3258C221.728 52.3258 214.464 61.769 214.464 73.3914C214.464 85.0138 221.728 94.457 230.652 94.457H239.058C247.982 94.457 255.246 85.0138 255.246 73.3914C255.246 62.1841 248.501 52.9484 240.095 52.3258C239.749 52.3258 239.404 52.3258 239.058 52.3258C238.712 52.3258 238.4 52.3258 238.124 52.3258H231.69Z" fill="#5712A6"/>
<path d="M11.6934 63.6371V82.6272H57.0413V46.9301H19.4762L11.6934 63.6371Z" fill="#5712A6"/>
<path d="M176.902 52.3258C177.248 52.3258 177.559 52.3258 177.836 52.3258H177.94C186.345 52.9484 193.09 62.1841 193.09 73.3914C193.09 85.0138 185.827 94.457 176.902 94.457H168.497L164.865 87.4005C162.27 83.6647 160.714 78.7875 160.714 73.3914C160.714 67.9953 162.167 63.1181 164.761 59.3823L168.497 52.3258H175.865C176.21 52.3258 176.556 52.3258 176.902 52.3258Z" fill="#5712A6"/>
<path d="M168.502 94.457C177.426 94.457 184.69 85.0138 184.69 73.3914C184.69 61.769 177.426 52.3258 168.502 52.3258C159.577 52.3258 152.313 61.769 152.313 73.3914C152.313 85.0138 159.577 94.457 168.502 94.457Z" fill="#7D21E8"/>
<path d="M167.67 88.2311C173.896 88.2311 178.981 81.5897 178.981 73.3918C178.981 65.1938 173.896 58.5524 167.67 58.5524C161.34 58.5524 156.255 65.1938 156.255 73.3918C156.255 81.5897 161.34 88.2311 167.67 88.2311Z" fill="#E3E0FF"/>
<path d="M41.999 52.3258C42.2757 52.3258 42.5869 52.3258 42.9328 52.3258C51.442 52.9484 58.1871 62.1841 58.1871 73.3914C58.1871 85.0138 50.9233 94.457 41.999 94.457H33.5934L29.8578 87.4005C27.3673 83.6647 25.8105 78.7875 25.8105 73.3914C25.8105 67.9953 27.2635 63.1181 29.8578 59.3823L33.5934 52.3258H40.9613C41.3072 52.3258 41.6531 52.3258 41.999 52.3258Z" fill="#5712A6"/>
<path d="M33.5983 94.457C42.5226 94.457 49.7867 85.0138 49.7867 73.3914C49.7867 61.769 42.5226 52.3258 33.5983 52.3258C24.674 52.3258 17.4102 61.769 17.4102 73.3914C17.4102 85.0138 24.674 94.457 33.5983 94.457Z" fill="#7D21E8"/>
<path d="M32.6628 88.2311C38.9928 88.2311 44.0776 81.5897 44.0776 73.3918C44.0776 65.1938 38.9928 58.5524 32.6628 58.5524C26.4365 58.5524 21.3516 65.1938 21.3516 73.3918C21.3516 81.5897 26.4365 88.2311 32.6628 88.2311Z" fill="#E3E0FF"/>
<path d="M56.5281 81.5891H149.818C142.658 56.9954 165.073 35.8261 180.742 51.8069C187.799 59.0709 190.185 71.212 187.176 81.5891H237.194C240.203 79.9288 243.005 78.3722 243.524 78.1646C244.977 77.542 244.458 72.7686 244.458 70.6932C244.458 67.58 242.901 65.4009 240.307 62.7029C234.496 56.8917 245.288 51.9107 229.411 44.024C219.76 39.1468 186.242 32.0904 171.714 28.2509C157.186 24.4114 135.291 -0.908747 99.9046 0.0251928C64.6224 0.959133 43.6605 13.2039 31.3117 19.0151C18.9629 24.9301 9.416 25.5528 7.75566 26.383C6.09532 27.2131 7.65194 30.949 4.95388 34.2697C2.25583 37.5903 2.46322 40.1846 2.46322 40.1846V59.4858C2.46322 65.1933 -1.16877 68.6178 0.387796 74.3252C2.04814 80.0326 9.31222 81.5891 9.31222 81.5891H14.9158C7.85933 56.269 30.3777 36.1374 45.8397 51.8069C52.8961 59.0709 55.2828 71.212 52.2734 81.5891H56.5281Z" fill="#B06BFF"/>
<path d="M229.305 46.2033L180.636 38.0052C180.636 38.0052 189.56 45.2693 200.041 46.9297C210.522 48.6938 232.833 50.4578 232.833 50.4578L229.305 46.2033Z" fill="white"/>
<path d="M226.087 82.6265L238.644 75.3625C238.644 75.3625 240.719 73.9097 239.578 71.4191C238.54 68.8249 225.257 55.8537 223.701 55.5424C222.144 55.3348 210.626 55.3346 210.626 55.3346C210.626 55.3346 217.475 69.1363 217.059 70.4853C216.748 71.8343 214.05 74.6362 211.975 75.9852C210.003 77.3343 199.314 76.9191 199.314 76.9191L208.135 54.5047C208.135 54.5047 208.55 51.599 213.739 51.599C218.824 51.599 236.568 52.2215 236.568 52.2215L231.276 45.9952C226.399 40.3916 264.483 39.4578 266.766 46.9293L268.53 52.2215C268.53 52.2215 271.228 55.0234 271.228 57.5139C271.228 60.1082 270.917 72.6645 271.332 73.8059C271.747 74.9474 273.304 77.438 272.888 78.787C272.681 79.7209 269.36 81.485 266.455 82.6265H226.087Z" fill="#993DFF"/>
<path d="M271.229 61.5616L271.333 73.8066C271.748 75.0519 273.097 77.1274 272.993 78.5802H233.145C241.551 73.7029 243.73 74.2218 230.966 61.7693C225.466 56.3732 224.844 55.5429 222.145 55.4392C222.042 55.4392 230.655 55.3353 222.249 55.3353C234.287 55.3353 232.211 54.2977 240.513 63.0145C247.881 70.6936 246.013 70.1746 258.154 70.1746C264.173 70.1746 265.211 67.788 269.777 63.0145L271.229 61.5616Z" fill="#5712A6"/>
<path d="M43.9698 36.2413H51.9601C52.6865 36.2413 53.2056 36.7601 53.2056 37.4865C53.2056 38.2129 52.6865 38.7317 51.9601 38.7317H43.9698C43.3472 38.7317 42.7246 38.2129 42.7246 37.4865C42.7246 36.7601 43.3472 36.2413 43.9698 36.2413Z" fill="#5712A6"/>
<path d="M90.2511 36.2413H98.2414C98.864 36.2413 99.4866 36.7601 99.4866 37.4865C99.4866 38.2129 98.864 38.7317 98.2414 38.7317H90.2511C89.5247 38.7317 89.0059 38.2129 89.0059 37.4865C89.0059 36.7601 89.5247 36.2413 90.2511 36.2413Z" fill="#5712A6"/>
<path d="M95.8592 5.94044C93.1612 15.0723 92.8499 23.5814 92.7461 31.2605L148.056 33.8548C148.056 33.8548 149.613 31.8832 149.82 27.7324C150.028 23.6853 134.877 12.8932 123.047 8.32722C111.217 3.86506 95.8592 5.94044 95.8592 5.94044Z" fill="#5712A6"/>
<path d="M137.154 26.2791C137.154 26.2791 134.041 21.7132 130.72 20.6755C127.503 19.7416 122.626 19.6378 121.381 20.1567C115.466 22.6472 118.164 30.1188 124.598 30.1188C128.748 30.1188 135.493 30.1188 135.493 30.1188C136.012 31.9867 135.597 32.2978 137.777 32.2978C141.201 32.2978 143.38 32.7129 143.692 31.4676C143.899 30.7412 141.616 26.5905 141.305 26.3829C140.993 26.2792 137.154 26.2791 137.154 26.2791Z" fill="#B06BFF"/>
<path d="M54.6579 29.5996C55.6956 23.8922 57.4598 17.7696 59.639 12.3735C55.2806 13.8263 53.9315 14.1375 49.6768 15.9017C45.4222 17.7695 40.5449 28.873 40.5449 28.873L54.6579 29.5996Z" fill="#5712A6"/>
<path d="M62.3429 11.5438C59.9561 17.1474 58.192 23.685 57.1543 29.7037L83.8237 30.8453C84.3426 24.7228 87.1442 12.1664 89.8422 6.35522C89.8422 6.35522 77.8048 6.87408 62.3429 11.5438Z" fill="#5712A6"/>
<path d="M5.68555 34.2701C12.4307 34.0625 19.1757 32.402 24.468 28.1474L7.76097 27.4211C6.30817 28.1475 7.34589 31.2607 5.68555 34.2701Z" fill="#5712A6"/>
<path d="M215.503 65.9197C214.569 63.8443 213.428 61.3537 212.494 59.2782C211.456 56.9953 210.626 55.3349 210.626 55.3349L209.173 52.8445C208.239 53.6747 208.135 54.5049 208.135 54.5049L208.031 54.6085L209.173 58.7594L211.456 67.0611L211.56 67.5799C211.56 67.5799 212.909 70.6931 209.069 72.561C205.333 74.4289 199.314 76.9193 199.314 76.9193C199.314 76.9193 210.003 77.3345 211.975 75.9855C212.805 75.4666 213.739 74.7402 214.465 73.9101C215.019 73.4258 215.503 72.9414 215.918 72.4571C216.54 71.7307 216.956 71.0044 217.059 70.4856C217.163 70.0705 216.541 68.2027 215.503 65.9197Z" fill="#5712A6"/>
<path d="M231.276 45.9953L236.569 52.2216H268.53L266.87 47.1369C265.417 49.2123 259.191 49.4197 254.832 49.6273C244.455 50.0424 231.276 45.9953 231.276 45.9953Z" fill="#5712A6"/>
<path d="M256.085 55.4387C257.537 55.4387 258.679 57.2029 258.679 59.1746C258.679 61.25 257.537 62.9102 256.085 62.9102C254.632 62.9102 253.49 61.25 253.49 59.1746C253.49 57.2029 254.632 55.4387 256.085 55.4387Z" fill="#5712A6"/>
</svg>
