<svg width="112" height="175" viewBox="0 0 112 175" fill="none" xmlns="http://www.w3.org/2000/svg">
<path d="M11.1311 125.884L1.62954 142.24C1.90101 145.226 4.412 144.072 5.90509 142.986L1.62954 142.24C1.22233 143.054 0.339979 145.701 1.22226 147.805C1.62947 148.687 2.03665 149.976 3.39401 150.859C8.07691 155.134 29.5911 168.911 29.5911 168.911C29.5911 168.911 37.328 173.662 43.7755 162.871L58.4351 138.779L36.0386 135.792L11.1311 125.884Z" fill="#FFABCD"/>
<path d="M97.3914 109.935C97.3914 109.935 96.5091 119.437 92.6406 122.898C88.7722 126.291 47.5084 151.266 47.5084 151.266L28.5732 89.7113L85.3788 59.6465V63.5149H90.9439C90.9439 63.5149 92.6406 63.515 93.1157 63.9222C93.5229 64.3293 92.2335 81.1601 92.2335 81.1601L87.9578 100.095L90.0616 102.199L97.7987 110.411L97.3914 109.935Z" fill="#ED86AB"/>
<path d="M90.9432 124.187C82.799 130.16 47.0326 151.266 47.0326 151.266L42.7568 137.489L47.0326 127.581V132.738C47.0326 132.738 47.9148 136.607 50.901 137.082C53.9551 137.489 90.536 124.187 90.9432 124.187Z" fill="#FFABCD"/>
<path d="M93.9307 49.3307L105.604 47.159C105.604 47.159 108.997 46.6839 110.287 50.1451C111.576 53.6062 111.576 56.1852 108.59 58.3569C105.604 60.4608 97.3918 63.9219 97.3918 63.9219L93.9307 48.8557V49.3307Z" fill="#FFABCD"/>
<path d="M44.9273 0.263611H88.3629C93.5208 0.263611 97.7966 4.53912 97.7966 9.69695V116.858C97.7966 122.016 93.5208 126.291 88.3629 126.291H44.9273C39.7693 126.291 35.4258 122.016 35.4258 116.858V9.69695C35.4258 4.53912 39.7693 0.263611 44.9273 0.263611Z" fill="#5712A6"/>
<path d="M45.3352 3.04633H51.3754V3.86069C51.3754 6.03241 53.0722 7.72903 55.244 7.72903H66.4422H77.5725C79.7443 7.72903 81.5089 6.03241 81.5089 3.86069V3.04633H87.4813C91.3498 3.04633 93.9288 6.03244 93.9288 9.49362V115.704C93.9288 119.573 90.9426 122.219 87.4813 122.219H45.3352C41.4667 122.219 38.8877 119.165 38.8877 115.704V9.49362C38.8877 5.62524 41.8739 3.04633 45.3352 3.04633Z" fill="url(#paint0_linear_3308_542)"/>
<path d="M45.3352 3.72479H51.3754V4.53915C51.3754 6.71087 53.0722 8.4075 55.244 8.4075H66.4422H76.3508C75.8758 10.5792 75.8758 13.1582 77.5725 15.7371C81.0338 22.1844 87.074 17.0266 90.0602 24.7633C91.3496 28.6317 91.3498 29.2424 93.9288 29.7174V49.1952C88.3636 38.4723 80.6265 28.6317 65.967 22.1844C55.2438 17.4337 47.507 11.4615 42.349 5.01418C43.1634 4.13192 44.4529 3.72479 45.7424 3.72479H45.3352ZM93.9288 59.7822V70.7765C89.6531 64.7364 82.7983 63.5148 78.9299 71.6588C75.8758 78.1061 84.9701 90.1863 94.4038 100.909V108.239C91.4176 103.488 87.0741 99.6197 82.3912 97.5159C68.1389 91.4758 49.2037 83.7391 39.77 60.0538C39.3628 59.1715 38.8877 58.3571 38.8877 57.4748V25.6454C42.7562 27.8172 47.9141 29.9211 54.4294 30.8033C73.2967 33.7895 87.4134 43.4943 93.8608 57.2032L93.9288 59.7822Z" fill="url(#paint1_linear_3308_542)"/>
<path d="M30.2704 41.1194C30.2704 41.1194 19.0721 55.7786 16.4931 60.0542C13.9141 64.3298 13.9141 69.4875 13.9141 78.1065C13.9141 86.7255 13.9141 111.7 13.9141 111.7C13.9141 111.7 14.3891 118.962 11.3351 125.477C8.34888 131.924 5.15918 137.286 5.15918 137.286L46.6265 152.963V109.121C46.6265 109.121 46.6265 97.5163 40.179 86.3184C33.7315 74.7133 29.8631 70.3699 29.8631 70.3699C29.8631 70.3699 31.5598 65.212 33.7315 58.7647C36.3105 52.3174 37.125 37.1833 31.0847 40.1694L30.2704 41.1194Z" fill="#FFABCD"/>
<path d="M37.1904 149.977L47.0313 153.845V126.291C47.0313 126.766 47.0313 135.318 43.6379 140.475C42.7556 141.765 40.1766 145.701 37.1904 149.977Z" fill="#FFABCD"/>
<path d="M96.9832 69.4873C96.9832 69.4873 91.8251 78.1063 90.9428 81.1603C90.0606 84.1464 91.3501 87.6077 93.5219 88.8971C95.6936 89.7115 98.6799 90.5937 100.377 89.3042C102.141 88.0148 108.181 78.9886 108.589 77.2919C108.996 76.0025 109.471 73.3557 107.299 71.659C105.602 69.9623 103.023 68.1978 102.141 67.3834C101.259 66.5011 98.2727 66.9084 96.9832 69.4873Z" fill="#FFABCD"/>
<path d="M106.419 97.5161C106.419 97.5161 87.0764 108.239 85.3797 109.528C83.6151 110.818 84.0902 114.279 85.3797 115.976C86.6692 117.672 87.9586 117.672 88.7731 117.672C90.0626 117.672 103.025 113.804 103.433 112.514C103.84 111.7 108.998 104.778 109.473 103.488C109.88 102.199 109.88 100.502 106.419 97.5161Z" fill="#FFABCD"/>
<path d="M103.43 85.8429C103.43 85.8429 95.6933 90.5935 93.5215 92.7652C91.8248 94.8691 90.9426 98.3303 92.2321 100.095C93.5216 101.791 95.6933 103.488 97.39 103.081C99.5617 102.674 108.181 97.9231 108.995 97.0408C109.878 96.1586 111.167 94.4619 110.285 91.8829C109.47 89.7112 108.181 87.1323 107.706 86.3179C107.299 85.4357 104.72 84.5535 102.548 85.8429H103.43Z" fill="#FFABCD"/>
<path d="M106.417 98.8055C106.417 98.8055 101.259 101.384 98.6797 102.674L98.2725 101.792C100.851 100.502 106.009 97.9232 106.009 97.9232L106.417 98.8055Z" fill="#ED86AB"/>
<path d="M96.9854 89.3044C99.0893 89.3044 99.9715 88.4221 100.854 86.7255L101.261 86.3184L102.143 87.1327L101.736 87.6078C100.379 89.3044 99.5643 90.5939 96.9854 90.1867V89.3044Z" fill="#ED86AB"/>
<path d="M22.1225 68.1978L29.8594 69.9622L29.4523 70.7766L21.6475 69.0799L22.1225 68.1978Z" fill="#ED86AB"/>
<path d="M48.3243 126.766C48.3243 126.766 45.7453 131.449 38.8907 135.792L38.4834 134.91C45.3381 130.635 47.51 126.291 47.9172 126.291L48.7995 126.766H48.3243Z" fill="#ED86AB"/>
<path fill-rule="evenodd" clip-rule="evenodd" d="M86.4005 58.968V62.0899H85.1111V59.1716C85.1111 58.2215 84.6359 57.7464 83.8215 57.7464C82.9392 57.7464 82.3285 58.2894 82.3285 59.3752V62.0899H81.1068V56.7284H82.2605V57.407C82.6677 56.8641 83.3464 56.6606 84.1609 56.6606C85.4504 56.6606 86.4005 57.3392 86.4005 58.968ZM67.7368 56.7284L65.4294 62.0899H64.1398L61.8323 56.7284H63.1218L64.8185 60.6646L66.5152 56.7284H67.7368ZM59.7963 56.7284H61.0857V62.0899H59.7963V56.7284ZM59.6606 55.0996C59.6606 54.6246 59.9999 54.2853 60.475 54.2853C60.95 54.2853 61.2894 54.6245 61.2894 55.0317C61.2894 55.5068 60.95 55.8461 60.475 55.8461C59.9999 55.8461 59.6606 55.5068 59.6606 55.0996ZM58.7783 56.6606V57.8143C58.6425 57.8143 58.5294 57.8143 58.4389 57.8143C57.4888 57.8143 56.9459 58.3572 56.9459 59.443V62.0899H55.6563V56.7284H56.8779V57.475C57.2173 56.932 57.896 56.6606 58.7783 56.6606ZM47.4443 55.0317H50.5662C52.8058 55.0317 54.3668 56.4569 54.3668 58.5607C54.3668 60.6646 52.8058 62.0899 50.5662 62.0899H47.4443V55.0317ZM50.4984 60.936C52.0594 60.936 53.0773 59.9859 53.0773 58.5607C53.0773 57.0677 52.0594 56.1176 50.4984 56.1176H48.8017V60.936H50.4984Z" fill="white"/>
<path fill-rule="evenodd" clip-rule="evenodd" d="M72.3489 60.4612L73.0276 61.2756C72.5525 61.8185 71.8059 62.1579 70.9236 62.1579C69.0912 62.1579 67.9375 61.0043 67.9375 59.3755C67.9375 57.8146 69.0912 56.6608 70.72 56.6608C72.2131 56.6608 73.3668 57.6109 73.4347 59.3075L69.2949 60.1219C69.5663 60.7327 70.1092 61.0721 70.9236 61.0721C71.5344 61.0721 72.0096 60.8684 72.3489 60.4612ZM69.1592 59.3075L72.1453 58.7646C72.0096 58.0859 71.4665 57.6109 70.72 57.6109C69.7698 57.6109 69.1592 58.2896 69.1592 59.3075Z" fill="white"/>
<path fill-rule="evenodd" clip-rule="evenodd" d="M74.1865 59.3755C74.1865 57.7467 75.4081 56.6608 77.0369 56.6608C78.6658 56.6608 79.8874 57.7467 79.8874 59.3755C79.8874 61.0043 78.6658 62.1579 77.0369 62.1579C75.4081 62.1579 74.1865 61.0043 74.1865 59.3755ZM78.5979 59.3755C78.5979 58.3575 77.9192 57.6788 77.0369 57.6788C76.1547 57.6788 75.4082 58.3575 75.4082 59.3755C75.4082 60.3935 76.1547 61.0721 77.0369 61.0721C77.9192 61.0721 78.5979 60.3935 78.5979 59.3755Z" fill="#CFC7FF"/>
<path fill-rule="evenodd" clip-rule="evenodd" d="M73.775 58.968C73.6392 57.7464 74.2501 56.7284 74.8609 56.2533C75.5396 55.6425 76.5577 55.2353 77.7793 55.5067C79.8832 55.9818 80.969 58.3571 79.8831 60.2574C79.7474 60.5967 77.8471 63.2435 77.5756 63.7186C77.4399 63.8543 77.2363 64.1937 77.1006 64.2616C76.897 64.3294 76.6934 63.99 76.6256 63.8543L74.9966 61.5469C74.3858 60.6647 73.9107 60.1896 73.775 58.968ZM77.3042 57.2034C76.422 56.9998 75.7433 57.6786 75.6075 58.3572C75.4718 59.2395 76.0826 59.8502 76.7613 59.986C77.6435 60.1217 78.3222 59.5109 78.458 58.8323C78.5937 57.95 77.9829 57.3391 77.3042 57.2034Z" fill="white"/>
<path fill-rule="evenodd" clip-rule="evenodd" d="M110.894 105.253C110.442 104.846 110.012 104.416 109.605 103.963H108.722C108.315 104.438 108.315 104.846 107.908 105.253C107.433 106.135 107.026 106.542 106.551 107.424C106.143 108.307 105.261 109.121 104.854 109.596C104.854 110.004 104.447 110.003 104.447 110.411C104.447 110.411 104.447 110.886 103.972 110.886C103.972 111.293 102.275 111.7 100.103 112.582C99.696 112.99 98.8138 112.99 97.9994 113.465V114.754C97.9994 116.451 97.5242 118.147 96.7098 119.437C96.2347 120.319 95.4204 121.201 94.9453 121.609C93.226 123.328 91.0768 124.188 88.4978 124.188H88.0905C86.3938 125.477 84.2221 126.766 82.0504 128.056C80.7609 128.938 79.0642 129.82 77.2996 131.11C73.4311 133.689 69.1553 136.268 65.2868 138.372C62.7078 140.136 60.129 141.425 57.9572 142.715C56.6677 143.529 55.3781 144.412 54.4959 144.819C55.7853 144.004 56.6677 143.529 57.9572 142.715C60.129 141.425 62.7078 139.661 65.2868 138.372C61.8255 139.661 58.8394 140.543 56.6676 140.95C54.9709 141.426 53.6815 141.833 53.2064 141.833C50.6274 141.426 49.3378 138.371 49.3378 137.964V142.24V148.28C50.6273 147.398 52.3919 146.583 54.0886 145.294L49.3378 153.438L48.9307 154.32L46.759 157.781L45.0623 160.767C38.2076 171.965 30.8777 166.807 30.8777 166.807C30.8777 166.807 9.36359 153.031 4.61283 148.687C4.61283 148.687 4.61276 148.687 4.20555 148.687C3.7531 149.999 3.7531 151.311 4.20555 152.623C4.61276 153.438 5.02003 154.727 6.30953 155.609C11.0603 159.885 32.5744 173.662 32.5744 173.662C32.5744 173.662 40.3115 178.413 46.759 167.622L56.2605 151.741C65.6942 146.108 82.0503 136.268 89.7872 130.635H90.2623C95.4203 130.635 99.6961 126.359 99.6961 121.201V119.912C102.682 119.03 105.261 117.74 105.736 117.333C106.143 116.451 109.198 112.582 110.894 110.003C111.301 109.121 111.776 108.714 111.776 108.307C112.184 107.424 112.184 106.135 110.487 104.438L110.894 105.253ZM105.261 113.804H106.551Z" fill="#983DFF"/>
<defs>
<linearGradient id="paint0_linear_3308_542" x1="-20.0992" y1="-61.5487" x2="-88.8684" y2="43.109" gradientUnits="userSpaceOnUse">
<stop stop-color="#25E0F9"/>
<stop offset="1" stop-color="#B06BFF"/>
</linearGradient>
<linearGradient id="paint1_linear_3308_542" x1="0.124827" y1="-40.7527" x2="-99.2087" y2="97.4289" gradientUnits="userSpaceOnUse">
<stop stop-color="#25E0F9"/>
<stop offset="1" stop-color="#B06BFF"/>
</linearGradient>
</defs>
</svg>
