<svg width="15" height="5" viewBox="0 0 15 5" fill="none" xmlns="http://www.w3.org/2000/svg">
<path d="M0.22022 4.35998C0.24022 4.52998 0.340225 4.62996 0.450225 4.68996C0.580225 4.75996 0.790235 4.73996 0.960235 4.73996C5.05357 4.73996 9.15022 4.73996 13.2502 4.73996C13.3902 4.73996 13.7002 4.74998 13.8102 4.72998C13.9502 4.68998 14.0602 4.58998 14.1202 4.47998C14.1702 4.34998 14.1502 4.09997 14.1502 3.94997C14.1502 3.65997 14.1602 1.27998 14.1502 1.15998C14.1302 0.999983 14.0202 0.879978 13.9102 0.829978C13.7702 0.759978 13.5702 0.779978 13.4002 0.779978H1.11023C0.710235 0.779978 0.390225 0.719964 0.250225 1.03996C0.190225 1.16996 0.210235 1.41997 0.210235 1.56997C0.210235 1.85997 0.20022 4.23998 0.22022 4.35998Z" fill="black"/>
<path fill-rule="evenodd" clip-rule="evenodd" d="M8.0201 1.40998H8.13011C8.17011 1.47998 8.2301 1.55998 8.2701 1.62998C8.3001 1.66998 8.3201 1.69996 8.3401 1.73996C8.3601 1.75996 8.36011 1.77997 8.38011 1.79997L8.41012 1.83996L8.4201 1.40998H8.5201V2.04997C8.4001 2.04997 8.43011 2.06998 8.35011 1.92998L8.1201 1.57998C8.1201 1.57331 8.1201 1.56997 8.1201 1.56997V2.04997H8.0201V1.40998ZM4.4701 1.86997C4.3201 1.54997 4.72012 1.22996 5.01012 1.48996C5.00012 1.52996 4.98011 1.53997 4.95011 1.56997C4.91011 1.54997 4.9001 1.49996 4.8201 1.48996C4.6301 1.46996 4.51011 1.61997 4.55011 1.79997C4.61011 2.02997 4.9801 2.00996 4.9901 1.78996H4.7701L4.76012 1.69997C4.83012 1.68997 5.0401 1.68997 5.0901 1.69997C5.1401 2.09997 4.6201 2.17997 4.4701 1.86997ZM7.91012 1.63996C8.02012 2.07996 7.3701 2.22998 7.2701 1.80998C7.2201 1.59998 7.35012 1.44997 7.51012 1.39997C7.71012 1.34997 7.87012 1.48996 7.91012 1.63996ZM7.65011 1.49997C7.51011 1.45997 7.3901 1.54997 7.3701 1.66997C7.3001 1.99997 7.76012 2.06996 7.81012 1.78996C7.84012 1.63996 7.76011 1.51997 7.65011 1.49997ZM5.1901 1.40998H5.58011V1.49997H5.30011V1.67998H5.5401V1.76997H5.30011V1.94997H5.5701V2.03996H5.1901V1.40998ZM6.5701 1.40998H7.0201L7.01012 1.50998H6.8401V2.04997H6.75011H6.7401V1.50998H6.56012L6.5701 1.40998ZM5.65011 1.40998H6.10011V1.49997H5.93011V2.04997L5.8201 2.03996V1.49997H5.65011V1.40998ZM6.3901 1.40998L6.4901 1.41997V2.04997H6.3901V1.40998Z" fill="white"/>
<path fill-rule="evenodd" clip-rule="evenodd" d="M3.22039 1.83997C3.18039 1.96997 3.14039 2.11997 3.10039 2.23997L2.84038 3.18997C2.79371 3.34997 2.74706 3.50997 2.70039 3.66997C2.68039 3.74997 2.6604 3.81998 2.6304 3.89998C2.6104 3.97998 2.5504 4.10998 2.4604 4.07998C2.4304 4.08998 2.4204 4.06998 2.3804 4.04998C2.2404 3.93998 2.08039 3.76997 1.95039 3.63997C1.81039 3.49997 1.6704 3.35666 1.5304 3.20999C1.4304 3.11999 0.700391 2.40997 0.700391 2.36997C0.660391 2.33997 0.650391 2.30997 0.650391 2.26997C0.650391 2.23997 0.650391 2.25997 0.650391 2.23997C0.670391 2.14997 0.760396 2.11998 0.830396 2.09998L2.49038 1.63997C2.54038 1.61997 2.95038 1.49998 2.99038 1.49998C3.05038 1.45998 3.1704 1.44998 3.2304 1.49998C3.3104 1.57998 3.24039 1.73997 3.22039 1.83997ZM1.89038 3.55999L1.84038 3.48997L1.8604 3.50999L1.89038 3.55999Z" fill="#00F075"/>
<path d="M5.30994 3.51997C5.3166 3.51997 5.32327 3.51997 5.32993 3.51997C5.3366 3.52664 5.34326 3.5333 5.34993 3.53997L5.46992 3.65999C5.41659 3.71999 5.35327 3.76664 5.27993 3.79998C5.2066 3.83331 5.11992 3.84998 5.01992 3.84998C4.92659 3.84998 4.84326 3.83331 4.76992 3.79998C4.68992 3.77331 4.6266 3.72997 4.57993 3.66997C4.5266 3.61664 4.4866 3.54997 4.45994 3.46997C4.43327 3.39664 4.41992 3.3133 4.41992 3.21997C4.41992 3.1333 4.43327 3.04997 4.45994 2.96997C4.49327 2.89664 4.53993 2.82997 4.59993 2.76997C4.65326 2.71664 4.71993 2.6733 4.79993 2.63997C4.87993 2.6133 4.9666 2.59998 5.05994 2.59998C5.1066 2.59998 5.14992 2.60332 5.18992 2.60999C5.22992 2.61665 5.26659 2.62663 5.29993 2.63997C5.33993 2.6533 5.37326 2.66997 5.39993 2.68997C5.43326 2.70997 5.45993 2.73332 5.47993 2.75999L5.38992 2.88997C5.38325 2.89663 5.37327 2.90332 5.35994 2.90999C5.35327 2.91665 5.34327 2.91997 5.32993 2.91997C5.3166 2.91997 5.30659 2.91665 5.29993 2.90999C5.29326 2.90999 5.28326 2.90664 5.26992 2.89998C5.26326 2.89331 5.25325 2.88665 5.23992 2.87998C5.22658 2.86665 5.20992 2.85664 5.18992 2.84998C5.17658 2.84331 5.15992 2.83997 5.13992 2.83997C5.11325 2.8333 5.0866 2.82998 5.05994 2.82998C5.0066 2.82998 4.95992 2.83999 4.91992 2.85999C4.87326 2.87999 4.8366 2.90663 4.80994 2.93997C4.7766 2.9733 4.74993 3.01332 4.72993 3.05999C4.7166 3.10665 4.70994 3.15997 4.70994 3.21997C4.70994 3.28664 4.7166 3.3433 4.72993 3.38997C4.74993 3.4433 4.77326 3.48664 4.79993 3.51997C4.83326 3.5533 4.86994 3.57663 4.90994 3.58997C4.94994 3.60997 4.98993 3.61997 5.02993 3.61997C5.0566 3.61997 5.08327 3.61665 5.10994 3.60999C5.12994 3.60999 5.14992 3.60664 5.16992 3.59998C5.18326 3.59331 5.19992 3.58665 5.21992 3.57998C5.23326 3.56665 5.24992 3.5533 5.26992 3.53997C5.27659 3.5333 5.28325 3.52998 5.28992 3.52998C5.29658 3.52331 5.30327 3.51997 5.30994 3.51997Z" fill="white"/>
<path d="M5.87034 2.57996V3.83994H5.61035V2.57996H5.87034Z" fill="white"/>
<path fill-rule="evenodd" clip-rule="evenodd" d="M6.68005 3.83994C6.66005 3.83994 6.64339 3.83662 6.63005 3.82996C6.61672 3.82329 6.60337 3.80994 6.59004 3.78994L6.58005 3.73994C6.55339 3.75994 6.53006 3.77661 6.51006 3.78994C6.49006 3.80327 6.47005 3.81328 6.45005 3.81995C6.43005 3.83328 6.40672 3.84328 6.38005 3.84995C6.35339 3.84995 6.32672 3.84995 6.30005 3.84995C6.26005 3.84995 6.22337 3.84661 6.19004 3.83994C6.15671 3.82661 6.13006 3.80994 6.11006 3.78994C6.08339 3.76994 6.06338 3.74661 6.05005 3.71995C6.04338 3.68661 6.04004 3.64996 6.04004 3.60996C6.04004 3.57663 6.04673 3.54661 6.06006 3.51995C6.07339 3.48661 6.10004 3.45662 6.14004 3.42996C6.18004 3.40329 6.23338 3.37996 6.30005 3.35996C6.36672 3.33996 6.45005 3.32996 6.55005 3.32996V3.28994C6.55005 3.24327 6.54004 3.20662 6.52004 3.17996C6.49338 3.15996 6.46339 3.14995 6.43005 3.14995C6.39672 3.14995 6.37005 3.15329 6.35005 3.15996C6.33005 3.16663 6.31338 3.17329 6.30005 3.17996C6.28005 3.18662 6.26338 3.19328 6.25005 3.19995C6.23672 3.20662 6.22005 3.20996 6.20005 3.20996C6.18005 3.20996 6.16338 3.20662 6.15005 3.19995C6.13672 3.19328 6.12671 3.18328 6.12004 3.16995L6.08005 3.08994C6.13339 3.04327 6.19005 3.00662 6.25005 2.97996C6.31672 2.95996 6.38673 2.94995 6.46006 2.94995C6.51339 2.94995 6.56005 2.95661 6.60005 2.96995C6.64672 2.98995 6.68339 3.01327 6.71006 3.03994C6.73673 3.07327 6.76005 3.10995 6.78005 3.14995C6.79339 3.19662 6.80005 3.24327 6.80005 3.28994V3.83994H6.68005ZM6.38005 3.67996C6.41339 3.67996 6.44338 3.67329 6.47004 3.65996C6.49671 3.64663 6.52338 3.62662 6.55005 3.59995V3.47996C6.49672 3.48662 6.45338 3.49328 6.42004 3.49995C6.38671 3.50662 6.36004 3.51328 6.34004 3.51995C6.32004 3.53328 6.30672 3.54663 6.30005 3.55996C6.28672 3.57329 6.28005 3.58662 6.28005 3.59995C6.28005 3.62662 6.29006 3.64663 6.31006 3.65996C6.32339 3.67329 6.34672 3.67996 6.38005 3.67996Z" fill="white"/>
<path d="M7.30962 4.06995C7.30295 4.08328 7.29295 4.09328 7.27961 4.09995C7.27295 4.11328 7.25628 4.11995 7.22961 4.11995H7.02961L7.19961 3.75996L6.84961 2.95996H7.07961C7.09961 2.95996 7.11628 2.96662 7.12961 2.97996C7.14295 2.98662 7.14961 2.99663 7.14961 3.00996L7.29961 3.38994C7.31294 3.42327 7.32295 3.45661 7.32961 3.48994C7.33628 3.46994 7.34294 3.45327 7.34961 3.43994C7.35628 3.41994 7.36294 3.39996 7.3696 3.37996L7.49961 3.00996C7.50628 2.99663 7.51628 2.98662 7.52961 2.97996C7.54295 2.96662 7.55627 2.95996 7.5696 2.95996H7.77961L7.30962 4.06995Z" fill="white"/>
<path d="M8.90012 2.85999C8.89346 2.87332 8.88345 2.8833 8.87012 2.88997C8.86345 2.89663 8.85345 2.89998 8.84011 2.89998C8.82678 2.89998 8.81011 2.89663 8.79011 2.88997C8.77678 2.8833 8.76011 2.87332 8.74011 2.85999C8.72678 2.84665 8.70679 2.83665 8.68013 2.82998C8.65346 2.82331 8.62679 2.81997 8.60012 2.81997C8.54679 2.81997 8.50679 2.82998 8.48013 2.84998C8.45346 2.87664 8.44011 2.90998 8.44011 2.94998C8.44011 2.96998 8.4468 2.98999 8.46013 3.00999C8.47347 3.02332 8.49345 3.03664 8.52012 3.04998C8.54678 3.06331 8.5768 3.07331 8.61013 3.07998C8.64347 3.09331 8.6768 3.10664 8.71013 3.11997C8.74347 3.12664 8.7768 3.13999 8.81013 3.15999C8.84347 3.17332 8.87346 3.1933 8.90012 3.21997C8.92679 3.24664 8.9468 3.27665 8.96013 3.30999C8.98013 3.34999 8.99011 3.3933 8.99011 3.43997C8.99011 3.49997 8.98013 3.55331 8.96013 3.59998C8.94013 3.65331 8.91012 3.69665 8.87012 3.72998C8.83012 3.76998 8.78346 3.79997 8.73013 3.81997C8.67679 3.83997 8.61679 3.84998 8.55012 3.84998C8.51012 3.84998 8.47013 3.84663 8.43013 3.83997C8.39013 3.8333 8.35013 3.82332 8.31013 3.80999C8.2768 3.79665 8.24347 3.77999 8.21013 3.75999C8.1768 3.73999 8.14678 3.71663 8.12012 3.68997L8.21013 3.55999C8.2168 3.54665 8.22346 3.53665 8.23013 3.52998C8.24346 3.52331 8.25678 3.51997 8.27012 3.51997C8.29012 3.51997 8.30678 3.52663 8.32012 3.53997C8.34012 3.5533 8.36013 3.5633 8.38013 3.56997C8.40013 3.5833 8.42346 3.59665 8.45012 3.60999C8.48346 3.62332 8.51679 3.62998 8.55012 3.62998C8.60346 3.62998 8.64345 3.61663 8.67012 3.58997C8.70345 3.56997 8.72012 3.53331 8.72012 3.47998C8.72012 3.45331 8.71011 3.42999 8.69011 3.40999C8.67678 3.39665 8.65679 3.3833 8.63013 3.36997C8.60346 3.35664 8.57345 3.34663 8.54011 3.33997C8.51345 3.32663 8.48011 3.31665 8.44011 3.30999C8.40678 3.29665 8.37345 3.2833 8.34011 3.26997C8.30678 3.24997 8.28013 3.22664 8.26013 3.19998C8.23347 3.17331 8.21011 3.14332 8.19011 3.10999C8.17678 3.06999 8.17012 3.01999 8.17012 2.95999C8.17012 2.91332 8.18012 2.86998 8.20012 2.82998C8.22012 2.78331 8.24679 2.74332 8.28013 2.70999C8.31346 2.67665 8.3568 2.64998 8.41013 2.62998C8.46347 2.60998 8.52345 2.59998 8.59011 2.59998C8.63011 2.59998 8.66679 2.59998 8.70012 2.59998C8.74012 2.60664 8.77346 2.61665 8.80012 2.62998C8.83346 2.64331 8.86345 2.65664 8.89011 2.66997C8.92345 2.68997 8.95012 2.70998 8.97012 2.72998L8.90012 2.85999Z" fill="white"/>
<path d="M9.43955 3.84995C9.39288 3.84995 9.35623 3.84329 9.32957 3.82996C9.29623 3.82329 9.26622 3.80662 9.23955 3.77996C9.21955 3.75996 9.20623 3.73328 9.19956 3.69995C9.18623 3.67328 9.17957 3.63995 9.17957 3.59995V3.13994H9.09956C9.08623 3.13994 9.07622 3.13662 9.06956 3.12996C9.06289 3.12329 9.05957 3.10994 9.05957 3.08994V2.98994L9.18955 2.95996L9.24956 2.74995C9.25623 2.72328 9.27289 2.70996 9.29956 2.70996H9.43955V2.96995H9.64956V3.13994H9.43955V3.57996C9.43955 3.59996 9.44624 3.61662 9.45957 3.62996C9.46624 3.64329 9.47956 3.64995 9.49956 3.64995C9.50623 3.64995 9.51289 3.64995 9.51956 3.64995C9.52622 3.64328 9.53288 3.63994 9.53955 3.63994C9.54622 3.63994 9.54956 3.63662 9.54956 3.62996C9.55623 3.62996 9.56289 3.62996 9.56956 3.62996C9.57622 3.62996 9.58288 3.63327 9.58955 3.63994C9.58955 3.63994 9.59289 3.64328 9.59956 3.64995L9.67957 3.77996C9.64623 3.79996 9.60956 3.81662 9.56956 3.82996C9.52289 3.84329 9.47955 3.84995 9.43955 3.84995Z" fill="white"/>
<path fill-rule="evenodd" clip-rule="evenodd" d="M10.1902 2.94995C10.2569 2.94995 10.3169 2.95996 10.3702 2.97996C10.4302 2.99996 10.4802 3.02995 10.5202 3.06995C10.5536 3.10995 10.5836 3.15663 10.6103 3.20996C10.6303 3.26996 10.6402 3.33328 10.6402 3.39995C10.6402 3.46662 10.6303 3.52994 10.6103 3.58994C10.5836 3.64327 10.5536 3.68996 10.5202 3.72996C10.4802 3.76996 10.4302 3.79995 10.3702 3.81995C10.3169 3.83995 10.2569 3.84995 10.1902 3.84995C10.1236 3.84995 10.0636 3.83995 10.0103 3.81995C9.95692 3.79995 9.91024 3.76996 9.87024 3.72996C9.83024 3.68996 9.80025 3.64327 9.78025 3.58994C9.75358 3.52994 9.74023 3.46662 9.74023 3.39995C9.74023 3.33328 9.75358 3.26996 9.78025 3.20996C9.80025 3.15663 9.83024 3.10995 9.87024 3.06995C9.91024 3.02995 9.95692 2.99996 10.0103 2.97996C10.0636 2.95996 10.1236 2.94995 10.1902 2.94995ZM10.1902 3.65996C10.2502 3.65996 10.2969 3.63661 10.3302 3.58994C10.3569 3.54994 10.3702 3.48662 10.3702 3.39995C10.3702 3.31328 10.3569 3.24996 10.3302 3.20996C10.2969 3.16329 10.2502 3.13994 10.1902 3.13994C10.1302 3.13994 10.0869 3.16329 10.0603 3.20996C10.0269 3.24996 10.0103 3.31328 10.0103 3.39995C10.0103 3.48662 10.0269 3.54994 10.0603 3.58994C10.0869 3.63661 10.1302 3.65996 10.1902 3.65996Z" fill="white"/>
<path d="M10.7803 3.83994V2.95996H10.9403C10.9536 2.95996 10.9636 2.96328 10.9703 2.96995C10.9769 2.96995 10.9836 2.97329 10.9903 2.97996C10.9969 2.97996 11.0036 2.98662 11.0103 2.99995C11.0103 3.00662 11.0103 3.01662 11.0103 3.02996L11.0303 3.10996C11.0636 3.05663 11.1003 3.01661 11.1403 2.98994C11.1803 2.96327 11.2236 2.94995 11.2703 2.94995C11.3103 2.94995 11.3403 2.95996 11.3603 2.97996L11.3303 3.16995C11.3303 3.18328 11.3269 3.18994 11.3203 3.18994C11.3136 3.19661 11.3036 3.19995 11.2903 3.19995C11.2769 3.19995 11.2636 3.19995 11.2503 3.19995C11.2436 3.19328 11.2303 3.18994 11.2103 3.18994C11.1369 3.18994 11.0803 3.22662 11.0403 3.29995V3.83994H10.7803Z" fill="white"/>
<path fill-rule="evenodd" clip-rule="evenodd" d="M11.8499 2.94995C11.9099 2.94995 11.9633 2.95996 12.0099 2.97996C12.0633 2.99329 12.1066 3.01996 12.1399 3.05996C12.1733 3.09329 12.1999 3.13329 12.2199 3.17996C12.2399 3.23329 12.2499 3.28995 12.2499 3.34995C12.2499 3.36995 12.2466 3.38662 12.2399 3.39995C12.2399 3.41328 12.2399 3.42329 12.2399 3.42996C12.2333 3.43662 12.2266 3.43994 12.2199 3.43994C12.2133 3.44661 12.2033 3.44995 12.1899 3.44995H11.6799C11.6933 3.52328 11.7166 3.57663 11.7499 3.60996C11.7833 3.64329 11.8299 3.65996 11.8899 3.65996C11.9233 3.65996 11.9499 3.65662 11.9699 3.64995C11.9899 3.63662 12.0099 3.62661 12.0299 3.61995C12.0433 3.61328 12.0566 3.60662 12.0699 3.59995C12.0899 3.59328 12.1066 3.58994 12.1199 3.58994C12.1399 3.58994 12.1566 3.59663 12.1699 3.60996L12.2399 3.69995C12.2133 3.73328 12.1833 3.75996 12.1499 3.77996C12.1233 3.79996 12.0933 3.81328 12.0599 3.81995C12.0266 3.83328 11.9933 3.84328 11.9599 3.84995C11.9266 3.84995 11.8966 3.84995 11.8699 3.84995C11.8033 3.84995 11.7433 3.83995 11.6899 3.81995C11.6366 3.79995 11.5899 3.76996 11.5499 3.72996C11.5099 3.68996 11.4799 3.64327 11.4599 3.58994C11.4333 3.52994 11.4199 3.45996 11.4199 3.37996C11.4199 3.31996 11.4299 3.26661 11.4499 3.21995C11.4699 3.16661 11.4999 3.11996 11.5399 3.07996C11.5733 3.03996 11.6166 3.00662 11.6699 2.97996C11.7233 2.95996 11.7833 2.94995 11.8499 2.94995ZM11.8599 3.12996C11.8066 3.12996 11.7666 3.14328 11.7399 3.16995C11.7133 3.20328 11.6966 3.24662 11.6899 3.29995H12.0099C12.0099 3.27995 12.0066 3.25994 11.9999 3.23994C11.9999 3.21994 11.9933 3.19996 11.9799 3.17996C11.9666 3.16662 11.9499 3.15662 11.9299 3.14995C11.9099 3.13662 11.8866 3.12996 11.8599 3.12996Z" fill="white"/>
</svg>
