<svg width="108" height="107" viewBox="0 0 108 107" fill="none" xmlns="http://www.w3.org/2000/svg">
<path fill-rule="evenodd" clip-rule="evenodd" d="M54.3089 107C24.0689 107 0 83.0174 0 53.5C0 23.9826 24.0689 0 54.3089 0C83.9317 0 108 23.9826 108 53.5C108 83.0174 83.9317 107 54.3089 107ZM53.6926 9.22419C37.0298 9.22419 20.3669 20.2935 13.5783 35.6672C11.1098 41.2017 9.87489 46.7356 9.87489 53.5C9.87489 85.4772 42.5841 107.001 72.2069 94.087C74.6755 92.8571 76.9374 91.4211 78.9946 89.7812C89.486 83.0168 98.1266 70.1041 98.1266 54.1155C98.1266 46.7362 96.8917 40.5861 94.4232 35.0516C90.7203 27.0573 84.5486 20.2923 77.1429 15.9877C70.3543 11.6831 62.9498 9.83914 53.6926 9.22419ZM66.6517 38.1264C66.6517 32.5918 61.7146 28.2866 54.3089 28.2866C46.9032 28.2866 41.3492 31.3616 37.6463 36.2812L28.3892 30.1318C33.9435 22.1375 42.5829 17.8328 55.5429 17.8328C70.3543 17.8328 80.2286 24.5981 80.2286 35.6672C80.2286 52.2707 62.9498 53.5 62.9498 65.7989H49.9892C49.9892 50.4253 66.6517 47.9655 66.6517 38.1264ZM48.1374 81.7881C48.1374 77.4835 51.8406 73.7935 56.1606 73.7935C61.0977 73.7935 64.1838 77.4835 64.1838 81.7881C64.1838 86.0927 61.0977 89.1672 56.1606 89.1672C51.8406 89.1672 48.1374 86.0927 48.1374 81.7881Z" fill="white"/>
</svg>
