<svg width="249" height="233" viewBox="0 0 249 233" fill="none" xmlns="http://www.w3.org/2000/svg">
<path d="M94.0557 218.282C68.5674 218.282 47.7764 197.491 47.7764 172.003C47.7764 146.53 68.5674 125.739 94.0557 125.739C119.544 125.739 140.319 146.53 140.319 172.003C140.319 197.491 119.544 218.282 94.0557 218.282Z" fill="#E3E0FF"/>
<path d="M119.496 180.389C70.1116 180.389 29.8379 140.115 29.8379 90.7302C29.8379 41.3614 70.1116 1.0719 119.496 1.0719C168.881 1.0719 209.155 41.3614 209.155 90.7302C209.155 140.115 168.881 180.389 119.496 180.389Z" fill="#E3E0FF"/>
<path d="M207.753 225.691C170.08 225.691 139.358 194.969 139.358 157.296C139.358 119.623 170.08 88.886 207.753 88.886C223.074 88.886 237.245 93.9773 248.657 102.537V212.056C237.245 220.615 223.074 225.691 207.753 225.691Z" fill="#E3E0FF"/>
<path d="M197.79 146.199C158.021 146.199 125.581 113.759 125.581 73.9744C125.581 34.2051 158.021 1.74963 197.79 1.74963C217.604 1.74963 235.589 9.80438 248.656 22.7929V125.156C235.589 138.16 217.604 146.199 197.79 146.199Z" fill="#E3E0FF"/>
<path d="M140.73 221.671L144.135 223.641L147.54 225.596V221.671V217.73L144.135 219.701L140.73 221.671Z" fill="#E3E0FF"/>
<path fill-rule="evenodd" clip-rule="evenodd" d="M195.393 196.561C197.143 196.561 198.577 197.995 198.577 199.761C198.577 201.511 197.143 202.945 195.393 202.945C193.628 202.945 192.193 201.511 192.193 199.761C192.193 197.995 193.628 196.561 195.393 196.561ZM200.217 202.141C202.297 202.141 202.297 205.309 200.217 205.309C198.136 205.309 198.136 202.141 200.217 202.141Z" fill="white"/>
<path d="M71.926 111.821C71.926 113.57 70.4916 115.005 68.7262 115.005C66.9608 115.005 65.5421 113.57 65.5421 111.821C65.5421 110.055 66.9608 108.621 68.7262 108.621C70.4916 108.621 71.926 110.055 71.926 111.821ZM66.3303 116.644C66.3303 117.511 65.6367 118.22 64.754 118.22C63.8871 118.22 63.1777 117.511 63.1777 116.644C63.1777 115.761 63.8871 115.068 64.754 115.068C65.6367 115.068 66.3303 115.761 66.3303 116.644Z" fill="white"/>
<path d="M207.975 32.755L211.379 34.7253L214.784 36.6957V32.755V28.8301L211.379 30.7847L207.975 32.755Z" fill="white"/>
<path d="M40.0369 161.363L41.0615 157.564L42.0703 153.765L38.2715 154.774L34.4727 155.799L37.2627 158.573L40.0369 161.363Z" fill="#E3E0FF"/>
<path d="M89.3894 232.5C87.7974 232.5 86.5049 231.207 86.5049 229.615C86.5049 228.023 87.7974 226.731 89.3894 226.731C90.9815 226.731 92.274 228.023 92.274 229.615C92.274 231.207 90.9815 232.5 89.3894 232.5Z" fill="#E3E0FF"/>
<path d="M248.658 52.7419H215.351C210.291 52.7419 210.591 58.5741 211.663 61.6479C212.735 64.7216 220.411 82.833 220.411 82.833C220.411 82.833 220.805 84.5196 221.451 86.8682H248.658V52.7419Z" fill="white"/>
<path d="M159.282 81.651H88.0819C88.0819 81.651 81.3985 81.651 82.8645 74.4475C84.3462 67.2281 99.368 36.3963 104.002 31.5413C105.279 30.2015 110.15 28.4046 117.448 29.6025C131.65 31.9197 153.671 38.9498 168.377 44.3722C167.699 48.5178 160.606 76.4966 159.282 81.651ZM170.048 81.651H163.443L172.349 45.8539C175.707 47.1464 178.497 48.2971 180.467 49.1956C194.874 55.7529 195.568 72.2092 192.415 77.7892C189.263 83.3849 170.048 81.651 170.048 81.651Z" fill="white"/>
<path d="M201.826 66.2822L195.316 84.5197L198.579 85.6861L205.089 67.4487L201.826 66.2822Z" fill="#CFC7FF"/>
<path d="M171.988 153.308L174.132 189.31H117.938L127.159 135.796L161.537 130.578L171.988 153.308Z" fill="#CFC7FF"/>
<path d="M179.805 87.1993L188.049 78.8451H225.628C225.628 78.8451 231.539 78.8766 234.155 84.567C236.756 90.2415 235.763 97.0038 235.763 97.0038H244.748V189.31H146.31V125.865L179.805 87.1993Z" fill="#CFC7FF"/>
<path d="M219.969 58.0068C229.615 57.4078 230.293 61.5376 226.841 70.7746C225.139 75.3142 220.568 75.4561 220.568 75.4561L204.742 75.4403C198.311 75.4403 196.592 74.9517 195.552 74.0374C194.496 73.1074 196.151 66.6132 197.885 62.6725C199.824 58.2432 203.166 58.0068 204.143 58.0068H219.969Z" fill="#CFC7FF"/>
<path d="M220.473 64.5168L213.979 82.7543L217.226 83.9207L223.736 65.6833L220.473 64.5168Z" fill="#CFC7FF"/>
<path d="M244.748 189.31L227.551 138.239C232.09 134.314 240.713 132.549 248.657 130.279V189.31H244.748Z" fill="#CFC7FF"/>
<path d="M248.656 144.119C243.738 150.045 238.647 155.657 234.643 159.629C233.288 160.969 232.043 162.135 230.986 163.05L227.062 116.692L244.747 97.0039H248.656V144.119Z" fill="#CFC7FF"/>
<path d="M197.994 150.613H136.835V139.405H197.994V150.613Z" fill="#CFC7FF"/>
<path d="M0 27.1591C0 27.1591 4.87069 48.2181 17.7804 56.0995C30.6743 63.9808 34.9617 64.4064 37.4049 70.8534C39.7221 77.0008 47.0675 108.684 43.3317 121.184H45.9483C48.628 105.862 42.2441 81.6193 38.461 66.2822C38.5714 64.0754 38.7763 62.3573 39.0285 61.3169C40.6993 54.6178 44.9237 53.7035 56.8088 44.372C68.6939 35.0562 71.0899 13.5717 71.0899 13.5717C51.418 39.7693 39.2334 31.5096 37.0109 61.3012C30.7688 43.1583 19.7822 47.9344 0 27.1591Z" fill="#CFC7FF"/>
<path d="M82.2025 46.9888C58.9368 57.5025 42.1337 94.9074 35.3242 121.609C37.6413 127.867 40.6205 133.81 44.1986 139.327C49.3688 118.236 66.7708 96.8147 85.5915 86.0645C64.2015 90.3993 44.703 103.766 38.1615 125.361C48.092 81.714 79.1288 66.5345 82.2025 46.9888Z" fill="#CFC7FF"/>
<path d="M135.055 152.583H248.657V153.702H135.055V152.583ZM224.918 60.261L221.608 72.5875L220.52 72.3037L223.83 59.9773L224.918 60.261ZM227.976 83.4953L213.143 138.838H248.657V139.973H185.621V138.838H211.977L226.888 83.2115L227.976 83.4953Z" fill="white"/>
<path d="M76.7949 33.4326C76.7949 33.4326 76.7949 26.4339 81.3031 22.3672C85.827 18.3004 93.2827 19.4353 93.2827 19.4353C93.2827 19.4353 92.1478 31.8563 76.7949 33.4326Z" fill="#CFC7FF"/>
<path d="M20.9956 74.4157C20.9956 74.4157 20.8537 71.1686 17.449 68.6466C14.0443 66.1403 10.6553 65.9984 10.6553 65.9984C10.6553 65.9984 11.0966 74.5576 20.9956 74.4157Z" fill="#E3E0FF"/>
<path d="M66.6296 129.317C64.2651 125.014 59.694 122.098 54.445 122.098C52.6165 122.098 50.8826 122.445 49.2906 123.091C47.5724 127.237 45.8701 132.501 44.1992 139.327C46.5636 142.968 49.1645 146.42 52.0175 149.667C52.3328 150.024 52.6533 150.387 52.979 150.755C49.6531 157.123 47.7773 164.358 47.7773 172.003C47.7773 178.119 48.9753 183.967 51.1506 189.31H98.4072C98.4072 189.31 97.6979 185.417 99.6997 184.676L112.121 180.089L113.035 179.758V177.788C113.035 177.788 113.145 177.063 113.697 177.063H114.249V175.266V165.84V138.397L100.267 151.59C99.7102 151.411 99.1901 151.227 98.7067 151.038L95.5699 154.175L91.3455 161.946C87.1211 161.899 85.8285 159.96 83.0701 158.636C76.9384 155.657 70.6806 152.709 67.6069 149.21C67.6069 149.21 68.9467 145.49 71.0589 145.852L85.0562 148.248L86.0492 146.546C86.0492 146.546 86.5064 145.978 86.9792 146.246L88.6974 147.239L90.9357 143.346C90.9357 143.346 91.8657 141.754 93.3158 139.248C95.034 136.316 97.4772 132.155 100.031 127.867C100.346 127.331 100.667 126.795 100.992 126.259C104.649 120.159 108.353 114.138 110.308 111.427C110.319 111.416 110.324 111.406 110.324 111.395C107.155 105.295 100.756 101.118 93.3947 101.118C82.8652 101.118 74.3218 109.645 74.3218 120.191C74.3218 122.066 74.6055 123.879 75.1099 125.597C74.8682 125.576 74.616 125.566 74.3533 125.566C71.2165 125.566 68.4265 127.032 66.6296 129.317Z" fill="#CFC7FF"/>
<path d="M72.2096 179.001C72.2096 179.001 72.052 175.754 68.663 173.248C65.2583 170.726 61.8535 170.584 61.8535 170.584C61.8535 170.584 62.3106 179.159 72.2096 179.001Z" fill="#E3E0FF"/>
<path d="M234.233 44.6558C234.233 44.6558 234.375 41.3929 237.78 38.8867C241.169 36.3804 244.574 36.2228 244.574 36.2228C244.574 36.2228 244.132 44.7977 234.233 44.6558Z" fill="#CFC7FF"/>
<path d="M38.6661 17.3547L35.2456 15.3844L31.8408 13.4298L35.2456 11.4595L38.6661 9.48914V13.4298V17.3547Z" fill="#E3E0FF"/>
<path d="M246.607 10.167C246.607 10.167 246.434 6.24204 242.32 3.19983C238.222 0.173393 234.107 0 234.107 0C234.107 0 234.643 10.3561 246.607 10.167Z" fill="#E3E0FF"/>
<path d="M83.2436 116.817L110.308 111.427L113.54 123.532H140.242L127.285 189.31H79.5078L83.2436 116.817Z" fill="#CFC7FF"/>
</svg>
