<svg width="250" height="337" viewBox="0 0 250 337" fill="none" xmlns="http://www.w3.org/2000/svg">
<path fill-rule="evenodd" clip-rule="evenodd" d="M124.921 0.47998C149.921 0.47998 171.918 10.48 187.918 26.48H188.919C204.919 42.48 214.92 64.4801 214.92 89.4801C214.92 114.48 204.919 136.48 188.919 152.48H187.918C171.918 168.48 149.921 178.48 124.921 178.48C100.921 178.48 78.919 168.48 62.9191 152.48C45.9192 136.48 35.9197 114.48 35.9197 89.4801C35.9197 64.4801 45.9192 42.48 62.9191 26.48C78.919 10.48 100.921 0.47998 124.921 0.47998ZM92.9189 192.48H157.919C182.918 192.48 205.918 203.48 222.918 219.48C239.918 236.48 249.92 259.48 249.92 285.48V336.48H208.919V285.48C208.919 270.48 203.919 257.48 193.919 248.48C184.919 239.48 171.918 233.48 157.919 233.48H92.9189C78.919 233.48 65.9205 239.48 56.9206 248.48C47.9206 257.48 41.9207 270.48 41.9207 285.48V336.48H0.919922V285.48C0.919922 259.48 10.9194 236.48 27.9193 219.48C44.9192 203.48 67.919 192.48 92.9189 192.48ZM159.92 55.48C150.921 46.48 138.921 41.48 124.921 41.48C111.921 41.48 99.9193 46.48 90.9194 55.48C82.9194 64.48 76.9204 76.4801 76.9204 89.4801C76.9204 102.48 82.9194 114.48 90.9194 123.48C99.9193 132.48 111.921 137.48 124.921 137.48C138.921 137.48 150.921 132.48 159.92 123.48C167.92 114.48 173.919 102.48 173.919 89.4801C173.919 76.4801 167.92 64.48 159.92 55.48Z" fill="#5712A6"/>
</svg>
