<svg width="102" height="50" viewBox="0 0 102 50" fill="none" xmlns="http://www.w3.org/2000/svg">
<path d="M101.69 0.420044V32.8101C96.7499 34.2701 95.3499 29.96 84.3199 37C73.2899 44.03 18.4599 39.47 18.4599 39.47L17.6299 22.54C58.3299 -23.29 71.3899 38.71 101.69 0.420044Z" fill="url(#paint0_linear_3308_636)"/>
<path d="M26.57 32.94L21.5 25.77L30.95 23.3C30.95 23.3 41.41 20.7701 54.85 29.0101C68.35 37.3101 69.68 39.2801 77.03 37.7601C89.14 35.2801 89.52 24.6301 101.76 19.3101V38.2C101.76 38.2 90.22 36.61 85.27 37.25C80.39 37.88 64.42 42.07 55.61 41.12C46.79 40.17 26.57 32.94 26.57 32.94Z" fill="url(#paint1_linear_3308_636)"/>
<path d="M101.7 36.99V47.45C57.0803 35.21 44.1403 59.49 0.280273 45.35V12.39C1.92027 13.4 3.64026 14.93 4.14026 17.21C5.16026 21.84 4.90027 24.12 9.28027 25.07C13.7203 26.02 13.7203 33.37 13.7203 33.37L22.6503 26.65L37.1103 27.41L33.7503 30.58H38.1803C54.4803 31.03 55.2403 44.59 79.0103 38.13C89.2803 35.34 101.7 37.05 101.7 37.05V36.99Z" fill="url(#paint2_linear_3308_636)"/>
<path d="M12.82 15.5101C12.56 15.3801 12.12 15.25 11.8 15.44C11.29 15.7 11.93 16.01 12.25 15.89C12.5 15.82 12.82 15.7001 12.94 15.6301C13.07 15.7601 13.2 15.8901 13.39 16.0101C13.13 15.9501 12.63 15.8201 12.31 16.0101C11.8 16.3301 12.5 16.58 12.82 16.39C13.07 16.27 13.39 16.1401 13.51 16.0801C13.7 16.3301 13.96 16.52 14.15 16.77L14.21 16.84C14.02 16.71 13.51 16.39 13.07 16.52C12.5 16.71 13.13 17.0901 13.45 17.0301C13.7 16.9601 14.15 16.9001 14.27 16.9001C14.84 17.7201 15.29 18.6101 15.42 19.5001H15.48C15.35 18.6801 14.97 17.85 14.46 17.09C14.53 16.96 14.65 16.58 14.78 16.39C14.91 16.08 14.59 15.4401 14.34 15.9501C14.15 16.2701 14.27 16.6501 14.34 16.9001C14.27 16.8401 14.27 16.7701 14.21 16.7101C14.08 16.5801 14.02 16.4601 13.89 16.3301C13.96 16.2001 14.08 15.8201 14.15 15.6301C14.27 15.3201 13.96 14.68 13.7 15.19C13.51 15.51 13.64 15.9501 13.7 16.2001C13.5734 16.0734 13.4467 15.9467 13.32 15.82C13.39 15.7 13.45 15.3201 13.51 15.0601C13.58 14.7401 13.26 14.1101 13.01 14.6801C12.88 15.0601 13.07 15.5101 13.2 15.7001C13.07 15.5701 12.88 15.4401 12.75 15.2501C12.82 15.1301 12.88 14.74 12.94 14.49C13.01 14.17 12.63 13.5401 12.44 14.1101C12.31 14.4901 12.5 14.93 12.63 15.19C12.5 15.13 12.37 15.0001 12.25 14.9301C12.25 14.8101 12.25 14.43 12.25 14.24C12.25 13.92 11.8 13.4801 11.74 13.9801C11.67 14.3601 11.93 14.68 12.12 14.87C11.99 14.81 11.93 14.7401 11.8 14.6801C11.61 14.4901 11.17 14.3001 10.79 14.3601C10.22 14.4901 10.79 14.9301 11.1 14.9301C11.36 14.9301 11.67 14.87 11.86 14.87C11.99 14.93 12.06 15.0001 12.18 15.0601C11.93 15.0001 11.61 14.8701 11.36 15.0601C10.91 15.3201 11.48 15.57 11.74 15.44C11.93 15.38 12.25 15.25 12.37 15.19C12.5 15.32 12.69 15.44 12.82 15.57V15.5101Z" fill="#CEC7FF"/>
<path d="M20.6104 30.53V21.46C22.8304 21.4 24.8004 22.48 25.1104 25.08C25.1104 25.08 25.5603 24.82 26.0003 24.76C26.5103 24.76 26.6403 24.95 26.6403 24.95C26.6403 24.95 26.5703 25.46 26.1903 25.65C25.7503 25.9 25.6203 25.9 25.6203 25.9C25.6203 25.9 26.4503 25.9 26.9503 26.47C27.4603 27.04 27.4003 27.74 27.4003 27.74C27.4003 27.74 27.9003 26.16 29.6803 25.77C31.4503 25.39 32.5303 26.47 32.5303 26.47C32.5303 26.47 32.6604 26.03 32.9104 25.71C33.1704 25.46 33.2903 25.39 33.2903 25.39C33.2903 25.39 34.1203 25.71 34.3703 26.47C34.6903 27.17 37.2903 29.77 37.2903 29.77L37.1003 30.4H20.6104V30.53Z" fill="#983DFF"/>
<path d="M31.8999 22.8601C31.8999 22.8601 32.0899 20.8901 30.5699 19.8801L30.4999 19.8201L29.8099 20.2601L30.1899 19.6301C28.9799 18.8701 28.5399 18.9301 28.5399 18.9301C28.5399 18.9301 28.3499 22.2901 31.8999 22.8601Z" fill="#CEC7FF"/>
<path d="M26.1905 23.8101C26.1905 23.8101 26.8905 23.6801 27.2105 23.0501C27.5205 22.4201 27.3305 21.8401 27.3305 21.8401C27.3305 21.8401 26.0005 22.5401 26.1905 23.7501V23.8101Z" fill="#CEC7FF"/>
<path d="M30.9503 24.6301C30.9503 24.6301 30.0603 24.1301 29.3603 24.1901C28.6003 24.1901 28.2803 24.6301 28.2803 24.6301C28.2803 24.6301 28.9803 24.8901 29.4203 24.8901C29.8703 24.8901 30.5703 24.8901 31.0103 24.6301H30.9503Z" fill="#CEC7FF"/>
<path d="M23.28 20.32C23.09 20.13 22.7699 19.75 22.3899 19.75C21.8199 19.75 22.26 20.32 22.58 20.39C22.83 20.45 23.2099 20.51 23.3399 20.51C23.3999 20.7033 23.4633 20.8933 23.53 21.08C23.34 20.89 22.96 20.51 22.58 20.58C22.01 20.64 22.51 21.15 22.83 21.15C23.09 21.15 23.4699 21.21 23.5899 21.21C23.6566 21.53 23.72 21.8467 23.78 22.16C23.78 22.23 23.78 22.23 23.78 22.29C23.66 22.1 23.4 21.59 22.96 21.46C22.39 21.34 22.71 21.97 23.02 22.1C23.28 22.16 23.66 22.35 23.78 22.35C23.91 23.37 23.78 24.32 23.47 25.2H23.53C23.85 24.44 23.91 23.56 23.85 22.61C23.97 22.48 24.29 22.29 24.48 22.1C24.73 21.91 24.8 21.15 24.35 21.46C24.04 21.65 23.91 22.04 23.91 22.29C23.91 22.2233 23.91 22.16 23.91 22.1C23.91 21.91 23.85 21.78 23.85 21.59C23.97 21.46 24.23 21.27 24.42 21.15C24.67 20.96 24.7299 20.2 24.2899 20.51C23.9699 20.7 23.85 21.15 23.78 21.4C23.72 21.21 23.72 21.02 23.66 20.83C23.78 20.7 24.04 20.45 24.23 20.26C24.48 20.01 24.48 19.31 23.97 19.69C23.66 19.94 23.5899 20.39 23.5899 20.7C23.5299 20.5133 23.4666 20.3233 23.4 20.13C23.53 20.01 23.78 19.75 23.91 19.56C24.16 19.31 24.1 18.61 23.66 18.99C23.34 19.25 23.28 19.75 23.28 20.01C23.2133 19.8833 23.1499 19.7567 23.0899 19.63C23.1499 19.5 23.34 19.25 23.47 18.99C23.59 18.74 23.47 18.1 23.15 18.49C22.9 18.74 22.96 19.18 23.02 19.44C22.96 19.31 22.9 19.18 22.83 19.12C22.71 18.87 22.51 18.49 22.13 18.36C21.56 18.17 21.88 18.87 22.13 18.99C22.32 19.06 22.71 19.25 22.83 19.31C22.9 19.44 22.96 19.5 23.02 19.63C22.9 19.44 22.58 19.18 22.32 19.18C21.82 19.18 22.2 19.69 22.45 19.75C22.64 19.82 22.96 19.82 23.15 19.88C23.21 20.07 23.2799 20.26 23.3399 20.39L23.28 20.32Z" fill="#CEC7FF"/>
<path d="M26.1299 19.37C26.1299 19.37 25.2999 18.55 24.9899 17.72C24.6699 16.84 24.6699 15.89 24.6699 15.89C24.6699 15.89 24.7999 16.27 25.2999 16.58C26.6399 17.6 26.0599 18.1 26.1299 19.31V19.37Z" fill="#CEC7FF"/>
<path d="M27.2101 31.1C26.3801 31.04 25.9401 31.1 25.3701 31.73C25.3701 31.73 26.7601 31.92 27.2101 31.1Z" fill="#E4E0FF"/>
<path d="M36.1402 32.94C36.1402 32.94 35.2602 32.62 34.6202 33.19L34.8802 33.45L34.5002 33.32C33.9902 33.76 33.9902 34.02 33.9902 34.02C33.9902 34.02 35.5103 34.52 36.2103 33L36.1402 32.94Z" fill="#E4E0FF"/>
<path d="M12.1201 19.69C12.1201 19.69 12.2501 18.29 11.1701 17.53H11.1001L10.6001 17.85L10.9101 17.41C10.0301 16.84 9.71011 16.9 9.71011 16.9C9.71011 16.9 9.58009 19.31 12.1201 19.75V19.69Z" fill="#CEC7FF"/>
<path d="M16.4298 11.77L16.2998 13.03L17.5098 12.59L16.4298 11.77Z" fill="#CEC7FF"/>
<path d="M35.2599 18.99C35.4699 18.99 35.6399 19.16 35.6399 19.37C35.6399 19.58 35.4699 19.75 35.2599 19.75C35.0499 19.75 34.8799 19.58 34.8799 19.37C34.8799 19.16 35.0499 18.99 35.2599 18.99Z" fill="#CEC7FF"/>
<defs>
<linearGradient id="paint0_linear_3308_636" x1="99.5387" y1="-17.4039" x2="10.0937" y2="14.7127" gradientUnits="userSpaceOnUse">
<stop stop-color="#E4E0FF"/>
<stop offset="1" stop-color="#B06BFF"/>
</linearGradient>
<linearGradient id="paint1_linear_3308_636" x1="93.6464" y1="8.37967" x2="11.5238" y2="34.0099" gradientUnits="userSpaceOnUse">
<stop stop-color="#E4E0FF"/>
<stop offset="1" stop-color="#B06BFF"/>
</linearGradient>
<linearGradient id="paint2_linear_3308_636" x1="81.4906" y1="1.95071" x2="12.7039" y2="21.1269" gradientUnits="userSpaceOnUse">
<stop stop-color="#E4E0FF"/>
<stop offset="1" stop-color="#B06BFF"/>
</linearGradient>
</defs>
</svg>
