<svg width="95" height="95" viewBox="0 0 95 95" fill="none" xmlns="http://www.w3.org/2000/svg">
<path fill-rule="evenodd" clip-rule="evenodd" d="M81.5355 92.9199C74.5229 95.5497 35.9528 94.6727 26.3104 94.6727C-5.24652 94.6727 0.890412 71.8804 0.890412 45.5825C0.890412 13.1485 -3.49335 0 30.6933 0C43.5499 0 56.1147 0 68.3868 0C85.9184 0 90.3018 5.25872 92.9315 12.2715C93.8081 25.4204 95.5613 75.3872 92.9315 83.2765C90.3018 86.7829 87.6716 90.2902 81.5355 92.9199ZM8.77879 71.0051C8.77879 81.5242 12.2868 85.9068 23.6824 85.9068H71.017C80.6594 85.9068 85.9184 82.3995 85.9184 71.8804V21.9149C85.9184 12.2723 81.5368 8.76595 71.8944 8.76595C7.90392 8.76595 8.77879 2.62936 8.77879 32.4336V71.0051ZM54.3628 71.8804C23.6824 80.6463 8.78051 34.1876 41.214 24.5451C71.8944 14.9025 85.0431 63.1144 54.3628 71.8804ZM51.7326 63.9919C71.0174 59.6089 64.88 26.2974 43.8421 32.4336C21.9275 38.5698 30.6946 68.3749 51.7326 63.9919ZM74.5224 15.7791C78.0288 15.7791 80.6602 18.4085 80.6602 21.9149C80.6602 25.4213 78.0288 28.0506 74.5224 28.0506C71.0161 28.0506 67.5115 25.4213 67.5115 21.9149C67.5115 18.4085 71.0161 15.7791 74.5224 15.7791Z" fill="white"/>
</svg>
