<svg width="93" height="93" viewBox="0 0 93 93" fill="none" xmlns="http://www.w3.org/2000/svg">
<path fill-rule="evenodd" clip-rule="evenodd" d="M92.3009 83.9062C92.3009 90.9189 90.5486 92.6721 84.4125 92.6721H9.90302C3.76695 92.6721 0.259766 91.7943 0.259766 84.7815V10.2709C0.259766 5.88793 0.26105 0.629639 8.15029 0.629639H82.6598C86.1661 0.629639 88.7958 0.630067 91.4256 3.25985C93.1787 5.88964 92.3009 11.1484 92.3009 15.5313V83.9062ZM75.6467 39.199C73.0169 36.5692 69.5097 34.8173 66.0034 33.9407C52.8547 33.0641 50.2258 40.9517 49.3492 40.9517V34.816C48.4726 34.816 37.0771 34.816 36.2005 34.816V78.6458H50.2245C51.1011 70.7564 46.7182 49.7194 54.6074 47.0896C59.8669 44.4598 66.0047 47.0888 65.1281 54.9781V78.6458C66.0047 79.5224 78.2756 79.5224 79.1522 78.6458C79.1522 78.6458 80.03 47.9645 78.2769 45.3347C78.2769 44.4581 76.5233 40.9522 75.6467 39.199ZM15.1612 15.5313C7.27199 23.4207 21.2986 34.816 27.4347 26.05C30.941 20.7905 26.5572 15.5313 26.5572 15.5313C25.6806 15.5313 25.6811 12.9011 20.4216 12.9011C19.545 13.7777 17.791 13.7781 15.1612 15.5313ZM26.5572 34.816C24.8041 34.816 15.1625 34.816 14.2859 34.816V78.6458C15.1625 79.5224 27.4334 79.5224 28.31 78.6458L27.4347 34.816C27.4347 34.816 27.4338 34.816 26.5572 34.816Z" fill="white"/>
</svg>
