<svg width="675" height="173" viewBox="0 0 675 173" fill="none" xmlns="http://www.w3.org/2000/svg">
<path fill-rule="evenodd" clip-rule="evenodd" d="M674.462 81.1398V134.363H652.807V84.0097C652.807 67.3121 644.458 59.4851 630.63 59.4851C615.237 59.4851 604.801 68.8775 604.801 87.4014V134.363H582.886V41.4831H603.758V53.4844C610.802 44.8748 622.021 40.4395 635.588 40.4395C658.025 40.4395 674.462 53.2236 674.462 81.1398ZM351.729 41.4831L311.811 134.363H289.374L249.456 41.4831H272.154L301.114 110.361L330.857 41.4831H351.729ZM214.234 41.4831H236.15V134.363H214.234V41.4831ZM211.365 13.3059C211.365 6.00071 217.365 0 225.192 0C233.28 0 239.281 5.47892 239.281 12.7841C239.281 20.3502 233.541 26.3509 225.192 26.3509C217.365 26.3509 211.365 20.6111 211.365 13.3059ZM195.971 40.4395V61.3114C193.884 60.7896 192.319 60.7896 190.753 60.7896C174.317 60.7896 163.881 70.4429 163.881 89.4886V134.363H141.965V41.4831H162.837V55.0499C169.099 45.3966 180.318 40.4395 195.971 40.4395ZM0.557617 12.7841H53.7811C93.177 12.7841 120.05 37.0478 120.05 73.5737C120.05 110.1 93.177 134.363 53.7811 134.363H0.557617V12.7841ZM52.7376 115.579C79.8711 115.579 97.3514 99.1419 97.3514 73.8346C97.3514 48.5274 79.8711 32.0907 52.7376 32.0907H22.995V115.579H52.7376Z" fill="#5712A6"/>
<path fill-rule="evenodd" clip-rule="evenodd" d="M432.088 106.969L443.567 120.536C435.479 130.45 422.173 135.668 406.259 135.668C375.212 135.668 354.861 115.579 354.861 87.9232C354.861 60.2678 375.212 40.4394 402.867 40.4394C428.696 40.4394 449.568 57.9197 449.829 86.8796L378.603 100.707C383.039 111.404 393.214 117.144 406.78 117.144C417.216 117.144 425.304 114.013 432.088 106.969ZM375.994 86.6187V86.8796L428.696 76.7045C425.565 65.4858 415.912 57.9197 402.867 57.9197C386.952 57.9197 375.994 68.8775 375.994 86.6187Z" fill="#5712A6"/>
<path fill-rule="evenodd" clip-rule="evenodd" d="M463.145 87.9232C463.145 60.0069 484.017 40.4394 512.455 40.4394C541.415 40.4394 562.026 60.0069 562.026 87.9232C562.026 115.839 541.415 135.668 512.455 135.668C484.017 135.668 463.145 115.839 463.145 87.9232ZM540.11 87.9232C540.11 70.182 528.37 58.9633 512.455 58.9633C496.801 58.9633 485.06 70.182 485.06 87.9232C485.06 105.664 496.801 117.144 512.455 117.144C528.37 117.144 540.11 105.664 540.11 87.9232Z" fill="#7D21E8"/>
<path fill-rule="evenodd" clip-rule="evenodd" d="M455.827 81.1398C453.218 60.0069 464.698 42.5267 474.612 33.6561C486.352 23.2201 504.615 15.9149 525.748 20.872C561.752 29.2208 580.537 69.6602 562.535 103.316C559.404 109.056 527.053 154.714 521.574 162.801C519.747 165.15 516.356 171.15 514.008 171.933C509.833 173.759 507.224 167.759 505.137 165.15L477.743 125.754C466.785 109.578 458.175 101.49 455.827 81.1398ZM516.878 50.0927C502.267 47.2228 490.005 58.4416 488.179 70.182C486.091 85.0533 496.006 96.0111 508.007 98.3592C522.878 101.229 534.358 90.5322 536.706 78.5308C539.576 63.6595 528.618 52.4408 516.878 50.0927Z" fill="#26E0FA"/>
</svg>
