<svg width="673" height="173" viewBox="0 0 673 173" fill="none" xmlns="http://www.w3.org/2000/svg">
<path fill-rule="evenodd" clip-rule="evenodd" d="M673 81.8745V134.556H651.481V84.0991C651.481 67.775 643.319 59.6144 629.221 59.6144C613.639 59.6144 603.25 69.259 603.25 87.8091V134.556H581.733V41.8052H602.51V53.678C609.188 45.5159 621.058 41.0642 634.414 41.0642C656.674 41.0642 673 53.6783 673 81.8745ZM350.969 41.8052L310.901 134.556H288.641L248.572 41.8052H271.575L300.512 110.812L330.192 41.8052H350.969ZM213.698 41.8052H235.217V134.556H213.698V41.8052ZM210.731 13.6086C210.731 6.18856 216.666 0.253967 224.828 0.253967C232.99 0.253967 238.184 6.18965 238.184 12.8677C238.184 21.0297 232.99 26.9651 224.828 26.9651C216.666 26.9651 210.731 21.0287 210.731 13.6086ZM195.148 41.0642V61.8389C193.169 61.3443 191.438 61.098 189.954 61.098C173.63 61.098 163.241 70.7444 163.241 89.2946V134.556H141.724V41.8052H162.5V55.1616C168.436 45.5155 179.566 41.0642 195.148 41.0642ZM0 12.8677H53.4258C92.7521 12.8677 119.464 37.3535 119.464 73.7117C119.464 110.07 92.7521 134.556 53.4258 134.556H0V12.8677ZM52.6831 115.265C79.3953 115.265 97.2034 98.9399 97.2034 73.7117C97.2034 48.4836 79.3953 32.1587 52.6831 32.1587H23.0029V115.265H52.6831Z" fill="white"/>
<path fill-rule="evenodd" clip-rule="evenodd" d="M431.141 107.101L442.272 120.458C434.109 130.846 421.495 136.039 405.171 136.039C374.007 136.039 353.974 116.005 353.974 88.5509C353.974 60.3547 374.008 41.0633 402.204 41.0633C427.432 41.0633 448.949 58.1291 448.949 87.0673L377.717 101.165C382.169 111.553 392.558 117.488 405.914 117.488C416.302 117.488 424.463 114.521 431.141 107.101ZM375.491 87.0673L427.431 77.4209C424.463 65.5488 414.818 58.128 402.204 58.128C385.88 58.128 375.491 69.2592 375.491 87.0673Z" fill="white"/>
<path fill-rule="evenodd" clip-rule="evenodd" d="M462.304 88.5509C462.304 60.3547 483.081 41.0633 511.277 41.0633C540.215 41.0633 560.991 60.3547 560.991 88.5509C560.991 116.005 540.215 136.039 511.277 136.039C483.081 136.039 462.304 116.005 462.304 88.5509ZM538.731 88.5509C538.731 70.7428 526.859 59.6135 511.277 59.6135C495.695 59.6135 483.823 70.7428 483.823 88.5509C483.823 106.359 495.695 117.488 511.277 117.488C526.859 117.488 538.731 106.359 538.731 88.5509Z" fill="#CFC7FF"/>
<path fill-rule="evenodd" clip-rule="evenodd" d="M454.837 81.131C452.611 60.3549 463.741 43.2884 473.387 34.3843C485.26 23.9963 503.069 16.5759 524.587 21.0279C560.203 29.9319 579.495 70.0009 560.944 103.391C557.976 109.327 526.07 154.589 520.134 162.752C518.65 164.978 514.94 170.914 512.714 172.398C508.262 173.882 506.036 167.945 503.81 165.719L476.357 125.651C465.968 110.069 457.063 101.907 454.837 81.131ZM515.681 50.7081C500.841 47.7401 488.971 58.8716 487.487 70.7437C485.261 85.5838 494.906 95.9704 506.778 98.9384C521.618 101.906 533.491 90.7767 535.717 78.9046C538.685 64.0645 527.553 52.9341 515.681 50.7081Z" fill="white"/>
</svg>
