<svg width="138" height="146" viewBox="0 0 138 146" fill="none" xmlns="http://www.w3.org/2000/svg">
<path d="M45.6211 122.055L45.9271 135.61L55.4122 137.844L59.4816 121.153L45.6211 122.055Z" fill="#FFABCC"/>
<path d="M27.1548 101.28L22.504 100.744L18.9854 107.17L25.2119 113.259L33.5037 104.584L27.1548 101.28Z" fill="#FFABCC"/>
<path d="M108.055 51.238C108.055 51.238 93.7813 46.1588 90.5533 47.1839C87.31 48.2242 76.448 59.6981 74.0767 64.6243C71.7054 69.5352 71.8737 73.008 71.8737 73.008L108.223 85.0174C108.223 85.0174 116.959 67.5311 116.668 63.4616C116.377 59.3922 108.055 51.238 108.055 51.238Z" fill="#2678FA"/>
<path d="M75.7739 54.2825L74.7489 55.3381L72.7601 60.3408L72.1787 65.7259L77.0743 69.1528L83.8362 54.0377L75.7739 54.2825Z" fill="#ED87AB"/>
<path d="M70.512 72.6408L78.8956 69.5198L66.0754 46.8626C66.0754 46.8626 65.4329 45.7916 63.9795 45.5775C62.5108 45.348 48.4361 43.1909 48.4361 43.1909C48.4361 43.1909 47.6712 43.0685 47.4417 43.5886C47.2122 44.0935 47.0898 44.3689 47.0898 44.3689C47.0898 44.3689 46.6921 45.042 47.2887 46.0211C47.9007 47.0155 53.3929 56.0417 53.3929 56.0417L55.1675 66.1235L70.512 72.6408Z" fill="#E3E0FF"/>
<path d="M66.9924 48.4691L66.0745 46.8627C66.0745 46.8627 65.432 45.7918 63.9786 45.5776L62.8312 45.394L59.6797 48.6985L63.3819 52.2325L66.9924 48.4691Z" fill="white"/>
<path d="M70.5106 72.6409L76.7983 70.3002L64.4829 48.5455C64.4829 48.5455 63.8404 47.4746 62.3718 47.2452L46.966 44.8892C46.9507 45.1645 47.012 45.5623 47.2873 46.0213C47.8993 47.0157 53.3915 56.0419 53.3915 56.0419L55.1661 66.1237L70.5106 72.6409Z" fill="#C7C2FF"/>
<path d="M116.178 31.9463L116.3 30.034L113.975 28.7489C113.975 28.7489 106.295 33.7363 105.071 33.5986C103.847 33.4456 102.746 33.2008 102.746 33.2008L100.711 33.5221C100.711 33.5221 99.2118 36.1687 100.466 37.6986C101.721 39.2438 103.465 39.3815 105.714 38.9684C107.963 38.5706 111.573 36.4135 116.178 31.9463Z" fill="#ED87AB"/>
<path d="M51.9538 63.8594C51.9538 63.8594 57.3848 65.1291 58.7923 65.6187C60.1998 66.1083 60.7199 66.1083 60.7199 66.1083C60.7199 66.1083 58.3333 60.5854 57.7979 60.2489C57.2624 59.9123 55.3348 59.2545 55.3348 59.2545L53.3919 56.0417C53.3919 56.0417 51.449 56.9138 50.9594 58.3212C50.4699 59.7134 51.9538 63.8594 51.9538 63.8594Z" fill="#FFABCC"/>
<path d="M78.6042 87.6336L88.6247 95.4206L66.9466 95.9101C66.5642 95.8948 66.3194 95.8948 66.2582 95.9254C65.7992 96.1702 62.25 111.79 59.9552 122.071C58.8231 127.15 57.997 130.929 57.997 130.929C54.2335 133.101 49.3226 132.413 45.8193 131.204L44.7178 82.1261C44.7178 82.1261 55.7022 75.2723 59.2055 76.588C62.7242 77.8883 78.6042 87.6336 78.6042 87.6336Z" fill="#4D128F"/>
<path d="M95.4781 13.5575C95.4781 13.5575 91.8217 13.5575 89.1903 10.4671C86.5743 7.3768 87.2627 4.37827 89.6952 2.28235C92.1124 0.171138 96.3195 1.701 98.7061 1.39503C101.077 1.07376 107.992 -1.97066 112.857 2.09878C118.151 6.52008 118.701 20.3654 113.699 26.0412C108.681 31.7017 95.4781 13.5575 95.4781 13.5575Z" fill="#5712A6"/>
<path d="M107.794 21.1761L114.234 17.428L112.628 19.6004L115.871 30.7378L104.107 37.8823L98.9971 20.3653L107.794 21.1761Z" fill="#ED87AB"/>
<path d="M110.929 14.858C115.091 7.26992 118.64 20.8704 112.291 21.2682C112.291 21.2682 112.322 26.1637 111.45 27.25C110.578 28.3362 106.156 31.7019 102.913 32.3444C99.6544 32.9869 97.8338 31.4724 96.5946 27.097C96.5334 26.893 96.4723 26.6737 96.4111 26.4391C96.0898 25.1693 95.7379 23.4559 95.4013 21.6048C95.126 20.2126 93.6879 17.7801 93.5043 16.954C93.3819 16.3879 93.4278 13.3894 93.4737 11.5535C94.514 11.5382 95.6767 11.4311 96.9312 11.1558C102.301 10.039 104.948 8.52441 104.948 8.52441C104.948 8.52441 106.034 11.4465 106.63 12.5786C107.227 13.7107 108.145 14.9957 108.344 16.2961C108.543 17.5965 108.895 19.1417 108.895 19.1417L111.144 17.4588L110.929 14.858Z" fill="#FFABCC"/>
<path d="M99.1816 28.3666C99.1969 28.3666 102.654 29.1774 104.123 25.1539L103.129 24.7867C101.981 27.9077 99.4111 27.311 99.3958 27.311L99.1816 28.3666Z" fill="#ED87AB"/>
<path d="M122.711 67.1486L128.632 67.0109L136.648 52.2018C138.147 49.448 137.887 44.8584 133.588 40.0853C129.305 35.3121 116.301 30.0341 116.301 30.0341C116.301 30.0341 113.272 34.6236 108.422 35.7863C103.588 36.9337 100.712 33.5221 100.712 33.5221C100.712 33.5221 88.9318 35.5263 83.8068 40.1618C78.697 44.8125 74.75 55.338 74.75 55.338L98.8912 60.3713L112.002 70.8661L122.711 67.1486Z" fill="#2678FA"/>
<path d="M118.825 43.6959C118.809 43.7265 115.474 52.1408 114.22 56.3785L115.245 56.6845C116.484 52.4773 119.804 44.109 119.819 44.0937L118.825 43.6959Z" fill="white"/>
<path d="M110.089 78.5613C110.089 78.5613 54.02 62.4212 52.276 62.4671C50.5319 62.4977 44.9785 62.972 40.6031 69.3362C38.599 72.243 34.6673 79.005 30.9803 85.5222C26.5743 93.3092 22.5049 100.744 22.5049 100.744C23.8206 104.676 25.7482 106.696 31.7299 108.531L55.917 84.6655C55.917 84.6655 67.0391 90.326 77.4268 95.3592L78.0235 95.6499L111.527 94.9003C115.123 88.3218 117.402 78.7449 117.402 78.7449L110.089 78.5613Z" fill="#5712A6"/>
<path d="M84.3107 59.4839L79.2622 59.591L77.3499 46.2352L75.8353 46.2658L75.8047 44.8737L77.4417 44.8431L78.023 43.0837C81.97 42.9919 85.912 42.9001 89.8488 42.8083L90.5067 44.5371L92.1589 44.5065L92.1895 45.8987L90.675 45.9293L89.3593 59.3615L84.3107 59.4839Z" fill="white"/>
<path fill-rule="evenodd" clip-rule="evenodd" d="M83.6521 55.9348C81.5562 55.9807 79.8121 54.1143 79.7509 51.7583C79.705 49.4023 81.3573 47.4594 83.4685 47.3982C85.5797 47.3523 87.3237 49.2187 87.3696 51.5747C87.4308 53.946 85.7633 55.8889 83.6521 55.9348Z" fill="#78E3CC"/>
<path d="M91.3634 62.972C92.3272 63.3851 110.578 84.4819 114.067 85.0938C117.57 85.7058 119.268 83.9311 120.278 82.5084C121.287 81.1009 128.631 67.0108 128.631 67.0108C128.631 67.0108 126.106 63.2321 122.924 61.2127C119.742 59.1932 114.495 57.9235 114.495 57.9235L111.68 64.0888L97.7429 56.21C97.7429 56.21 96.2284 53.2115 94.3466 51.5592C92.4649 49.907 90.2619 50.0905 90.2619 50.0905L90.0783 51.9264C90.0783 51.9264 84.4331 52.3394 81.9854 52.0488C79.5376 51.7581 78.0077 50.8096 78.0077 50.8096C77.0286 51.8958 76.8756 52.9208 77.1816 53.9152C77.457 54.8331 77.5488 54.6037 77.9006 56.3171C79.048 61.8246 82.2913 61.2586 87.9365 62.4671C89.4511 62.7884 90.3996 62.5742 91.3634 62.972Z" fill="#FFABCC"/>
<path d="M111.543 64.2723L116.974 67.3321L117.494 66.3988L112.063 63.3391L111.543 64.2723Z" fill="#ED87AB"/>
<path d="M92.6483 51.8194C92.633 51.8194 91.9599 51.5593 90.1546 51.3451L90.0781 52.0182C91.7916 52.2018 92.4035 52.4313 92.4035 52.4313L92.6483 51.8194Z" fill="#ED87AB"/>
<path fill-rule="evenodd" clip-rule="evenodd" d="M88.9147 45.8987L88.93 46.4341L77.655 46.6789L77.6396 46.1435L88.9147 45.8987Z" fill="#E3E0FF"/>
<path d="M57.6601 52.5842C56.6198 52.6148 56.2832 53.4562 56.9105 54.4965C57.5377 55.5215 58.884 56.3324 59.9243 56.3171C60.9646 56.2865 61.3012 55.4297 60.6893 54.4047C60.062 53.3797 58.7004 52.5689 57.6601 52.5842Z" fill="#E3E3FA"/>
<path d="M54.3251 57.6023L55.3348 59.2546L53.8661 58.7497L52.2598 58.1837L53.7437 58.0919C53.7437 58.0919 53.9732 57.893 54.3251 57.6023Z" fill="#ED87AB"/>
<path d="M68.9338 51.9111L73.1409 59.3616L73.9977 60.8455L72.529 62.3754L72.3913 62.5284L67.3428 53.594L68.9338 51.9111Z" fill="white"/>
<path d="M56.6968 135.365L56.8957 144.59L30.7504 145.172C30.7504 145.172 29.9854 141.408 31.913 140.643C36.0896 139.006 44.7485 135.579 44.7485 135.579L44.7027 133.667C44.7027 133.667 44.7945 132.963 45.3299 132.948C45.8654 132.933 47.5482 132.902 47.5482 132.902C47.5482 132.902 48.3131 132.872 48.3284 133.499C48.3437 134.141 48.3743 135.549 48.3743 135.549C50.715 136.88 53.6065 136.436 56.6968 135.365Z" fill="#4D128F"/>
<path d="M27.2468 111.147L23.2997 118.782C19.215 118.812 17.8994 116.976 15.2068 115.737C9.17916 112.999 3.04442 110.26 0 106.94C0 106.94 1.20858 103.299 3.25859 103.605C7.69518 104.263 16.9049 105.625 16.9049 105.625L17.8229 103.942C17.8229 103.942 18.2665 103.376 18.7255 103.636C19.1997 103.896 20.6837 104.707 20.6837 104.707C20.6837 104.707 21.3568 105.059 21.0509 105.625C20.7449 106.175 20.0717 107.415 20.0717 107.415C21.7393 109.312 23.6822 110.627 27.2468 111.147Z" fill="#4D128F"/>
</svg>
