<svg width="14" height="5" viewBox="0 0 14 5" fill="none" xmlns="http://www.w3.org/2000/svg">
<path d="M0.470237 4.73003L0.490232 4.74001C0.770232 4.75001 1.07024 4.74001 1.35024 4.74001H13.4302C13.6202 4.74001 13.7802 4.73002 13.8802 4.55002C13.9202 4.49002 13.9202 4.46001 13.9402 4.39001V1.49001V1.14001C13.9302 1.00001 13.8602 0.920034 13.7902 0.860034C13.6802 0.770034 13.5902 0.77002 13.4402 0.77002H1.35024C1.06024 0.77002 0.760247 0.770029 0.480247 0.780029H0.460251C0.340251 0.770029 0.190232 0.900015 0.140232 1.04001C0.100232 1.15001 0.120237 1.46002 0.120237 1.60002V3.92002C0.120237 4.05002 0.100232 4.36002 0.140232 4.47002C0.190232 4.61002 0.350237 4.74003 0.470237 4.73003Z" fill="black"/>
<path fill-rule="evenodd" clip-rule="evenodd" d="M12.3698 1.58004C12.5498 1.55004 12.6199 1.69005 12.6099 1.86005H12.2799C12.2799 1.88005 12.2799 1.90005 12.2999 1.91005C12.2999 1.94005 12.3098 1.96003 12.3398 1.97003C12.3998 2.02003 12.4998 2.00004 12.5698 1.98004L12.5799 2.05004C12.4699 2.10004 12.3098 2.11004 12.2198 2.00004C12.1998 1.96004 12.1999 1.94004 12.1799 1.90004C12.1699 1.76004 12.2098 1.60004 12.3698 1.58004ZM12.5099 1.78004C12.4999 1.60004 12.2999 1.62004 12.2799 1.78004H12.5099ZM11.5999 1.36005H11.6999L11.7099 1.65004C11.7299 1.63004 11.7098 1.65004 11.7198 1.63004C11.7398 1.62004 11.7598 1.59004 11.7898 1.58004C11.9198 1.54004 12.0199 1.63004 12.0099 1.73004C12.0099 1.84004 12.0198 1.96003 12.0198 2.07003H11.9198C11.9198 2.04003 11.9299 1.79004 11.9099 1.75004C11.8999 1.63004 11.7399 1.64004 11.7099 1.73004C11.6899 1.79004 11.7099 1.99003 11.6999 2.07003L11.5999 2.08004V1.36005ZM11.3198 1.46005L11.3299 1.58004L11.4499 1.59003V1.66005H11.3299C11.3299 1.72005 11.3198 1.91004 11.3398 1.95004C11.3398 2.00004 11.3898 1.99003 11.4398 1.99003V2.06005C11.3898 2.09005 11.2998 2.08004 11.2698 2.05004C11.2298 2.02004 11.2198 1.96003 11.2198 1.89003V1.66005H11.1499V1.59003L11.2198 1.58004L11.2299 1.49003L11.3198 1.46005ZM10.3799 1.65004C10.4199 1.61004 10.4398 1.58003 10.5198 1.57003C10.5998 1.57003 10.6499 1.60004 10.6799 1.65004C10.7199 1.73004 10.7099 1.97003 10.7099 2.07003H10.5999C10.5899 1.98003 10.6098 1.80003 10.5898 1.72003C10.5598 1.62003 10.4099 1.64004 10.3999 1.75004C10.3799 1.76004 10.3898 2.02003 10.3898 2.07003H10.2898V1.59003H10.3698L10.3799 1.65004ZM9.69985 1.65004C9.74985 1.60004 9.79985 1.56005 9.89985 1.56005C10.0799 1.57005 10.1399 1.72004 10.1099 1.90004C10.0799 1.95004 10.0498 2.08003 9.86985 2.07003C9.70985 2.07003 9.67985 1.96003 9.64985 1.89003C9.63985 1.79003 9.64985 1.71004 9.69985 1.65004ZM10.0099 1.79003C9.98986 1.57003 9.72986 1.60004 9.75986 1.85004C9.77986 2.07004 10.0299 2.03003 10.0099 1.79003ZM9.07986 1.63004V1.35004H9.18984V2.07003L9.09985 2.06005L9.08984 1.99003C9.04984 2.04003 8.98985 2.10005 8.86985 2.06005C8.69985 2.01005 8.67986 1.73005 8.80986 1.61005C8.83986 1.59005 8.87984 1.56005 8.93984 1.56005C9.00984 1.56005 9.03985 1.59005 9.06985 1.61005L9.07986 1.63004ZM9.00986 1.98004C9.07986 1.95004 9.08986 1.87003 9.07986 1.77003C9.07986 1.69003 9.00985 1.62005 8.91985 1.66005C8.77985 1.74005 8.82986 2.05004 9.00986 1.98004ZM8.45986 1.75004C8.46986 1.69004 8.43984 1.65004 8.38984 1.65004C8.31984 1.64004 8.27986 1.66004 8.22986 1.68004L8.20986 1.61005C8.29986 1.55005 8.48984 1.55004 8.53984 1.63004C8.57984 1.71004 8.55985 1.94003 8.56985 2.02003L8.57986 2.07003L8.47986 2.06005L8.46985 2.02003C8.41985 2.04003 8.38985 2.09004 8.29985 2.08004C8.13985 2.05004 8.07986 1.77004 8.45986 1.75004ZM8.31985 1.85004C8.22985 1.92004 8.32986 2.06003 8.42986 1.97003C8.46986 1.93003 8.46985 1.89003 8.46985 1.82003C8.40985 1.82003 8.35985 1.83004 8.31985 1.85004ZM7.80986 1.57003C8.07986 1.56003 8.10986 1.92004 7.95986 2.03004C7.92986 2.05004 7.86986 2.08004 7.80986 2.08004C7.49986 2.08004 7.48986 1.58003 7.80986 1.57003ZM7.85986 1.99003C7.99986 1.93003 7.94985 1.59005 7.76985 1.66005C7.61985 1.72005 7.67986 2.06003 7.85986 1.99003ZM7.29985 1.35004H7.40986V2.07003H7.30986L7.29985 1.35004ZM6.91985 1.57003C6.99985 1.56003 7.04986 1.60004 7.07986 1.65004C7.11986 1.72004 7.10985 1.96003 7.09985 2.07003L6.99985 2.06005C6.98985 1.88005 7.03984 1.64004 6.88984 1.65004C6.72984 1.67004 6.79984 1.93003 6.78984 2.07003H6.67986V1.57003L6.76985 1.58004L6.77986 1.64003C6.80986 1.64003 6.81985 1.57003 6.91985 1.57003ZM5.82986 1.58004C5.94986 1.58004 5.93985 1.56003 5.94985 1.62003L6.02986 1.96005L6.14985 1.58004C6.25985 1.57004 6.21984 1.55003 6.28984 1.77003C6.30984 1.83003 6.32984 1.90005 6.33984 1.96005C6.34984 1.92005 6.39986 1.65004 6.42986 1.58004H6.53984L6.38984 2.07003L6.28984 2.06005C6.27984 2.02005 6.19986 1.73004 6.17986 1.70004C6.16986 1.74004 6.14986 1.84003 6.12986 1.89003C6.10986 1.95003 6.09986 2.01003 6.07986 2.07003H5.97986L5.82986 1.58004ZM5.54985 2.07003C5.20985 2.17003 5.11986 1.66004 5.40986 1.58004C5.74986 1.48004 5.81985 1.98003 5.54985 2.07003ZM5.51985 1.98004C5.65985 1.92004 5.60984 1.59004 5.43984 1.65004C5.27984 1.72004 5.33985 2.06004 5.51985 1.98004ZM5.10986 1.72003C5.10986 2.03003 4.85986 2.09005 4.55986 2.06005C4.53986 2.01005 4.54985 1.49004 4.54985 1.40004C4.84985 1.36004 5.10986 1.39003 5.10986 1.72003ZM4.98984 1.72003C4.98984 1.51003 4.85986 1.44003 4.65986 1.47003V1.98004C4.86986 2.01004 4.98984 1.92003 4.98984 1.72003ZM2.26985 3.78004C2.18985 3.87004 1.98984 3.98005 1.88984 3.96005C1.87984 3.80005 1.94986 3.62003 2.02986 3.54003C2.10986 3.46003 2.24985 3.34005 2.41985 3.36005C2.45985 3.51005 2.33985 3.71004 2.26985 3.78004ZM2.23984 3.19003C1.92984 3.19003 1.64986 3.02003 1.50986 2.77003C1.60986 2.72003 1.68984 2.61003 1.68984 2.49003C1.68984 2.33003 1.55985 2.20003 1.39985 2.19003C1.46985 1.79003 1.81984 1.49003 2.23984 1.49003C2.70984 1.49003 3.08984 1.87003 3.08984 2.34003C3.08984 2.81003 2.70984 3.19003 2.23984 3.19003ZM1.38984 2.34003C1.38984 2.28669 1.39319 2.23669 1.39985 2.19003C1.39985 2.19003 1.39651 2.19003 1.38984 2.19003C1.21984 2.19003 1.08984 2.32003 1.08984 2.49003C1.08984 2.66003 1.21984 2.79003 1.38984 2.79003C1.42984 2.79003 1.46986 2.78337 1.50986 2.77003C1.42986 2.64003 1.38984 2.50003 1.38984 2.34003Z" fill="#FCFCFC"/>
<path fill-rule="evenodd" clip-rule="evenodd" d="M4.85054 3.40007V3.81008H4.56055V2.58008H5.00054C5.0872 2.58008 5.16053 2.59008 5.22053 2.61008C5.28053 2.63008 5.33053 2.66007 5.37053 2.70007C5.4172 2.73341 5.44721 2.77674 5.46055 2.83008C5.48055 2.87674 5.49053 2.92674 5.49053 2.98008C5.49053 3.04674 5.48055 3.10341 5.46055 3.15007C5.44055 3.20341 5.41053 3.24674 5.37053 3.28008C5.33053 3.32008 5.28053 3.35007 5.22053 3.37007C5.16053 3.39007 5.0872 3.40007 5.00054 3.40007H4.85054ZM4.85054 3.19006H5.00054C5.07387 3.19006 5.12721 3.17008 5.16055 3.13008C5.19388 3.09674 5.21055 3.04674 5.21055 2.98008C5.21055 2.95341 5.20386 2.93008 5.19053 2.91008C5.18386 2.88342 5.17054 2.86341 5.15054 2.85007C5.1372 2.83007 5.11719 2.81675 5.09053 2.81008C5.06386 2.80342 5.03387 2.80007 5.00054 2.80007H4.85054V3.19006Z" fill="#FCFCFC"/>
<path d="M5.9104 2.55005V3.81006H5.65039V2.55005H5.9104Z" fill="#FCFCFC"/>
<path fill-rule="evenodd" clip-rule="evenodd" d="M6.73008 3.81006C6.70341 3.81006 6.6834 3.80672 6.67007 3.80005C6.65674 3.79338 6.64673 3.78006 6.64006 3.76006L6.62007 3.71006C6.60007 3.73006 6.58008 3.74673 6.56008 3.76006C6.54008 3.77339 6.51673 3.78672 6.49006 3.80005C6.47006 3.80672 6.44674 3.81338 6.42007 3.82004C6.40007 3.82671 6.3734 3.83005 6.34006 3.83005C6.30006 3.83005 6.26341 3.82339 6.23008 3.81006C6.20341 3.79673 6.17674 3.78006 6.15007 3.76006C6.13007 3.74006 6.11341 3.71671 6.10007 3.69004C6.08674 3.65671 6.08008 3.62005 6.08008 3.58005C6.08008 3.55339 6.08674 3.52337 6.10007 3.49004C6.12007 3.45671 6.15006 3.42672 6.19006 3.40005C6.2234 3.37338 6.2734 3.35005 6.34006 3.33005C6.40673 3.31672 6.49006 3.30672 6.59006 3.30005V3.27004C6.59006 3.21671 6.58008 3.17672 6.56008 3.15005C6.54008 3.13005 6.51007 3.12004 6.47007 3.12004C6.43674 3.12004 6.41006 3.12339 6.39006 3.13005C6.37006 3.13672 6.3534 3.14338 6.34006 3.15005C6.32673 3.16338 6.31341 3.17339 6.30007 3.18005C6.28007 3.18672 6.26006 3.19004 6.24006 3.19004C6.22673 3.19004 6.21341 3.18338 6.20007 3.17004C6.18674 3.16338 6.17674 3.15337 6.17007 3.14004L6.12007 3.06006C6.1734 3.01339 6.23341 2.97672 6.30007 2.95005C6.36007 2.93005 6.42674 2.92004 6.50007 2.92004C6.55341 2.92004 6.60341 2.93005 6.65007 2.95005C6.69007 2.96338 6.72341 2.98671 6.75007 3.02004C6.78341 3.04671 6.80674 3.08339 6.82007 3.13005C6.84007 3.17005 6.85007 3.21671 6.85007 3.27004V3.81006H6.73008ZM6.43008 3.65005C6.46341 3.65005 6.49008 3.64339 6.51008 3.63005C6.53675 3.62339 6.5634 3.60672 6.59006 3.58005V3.46006C6.53673 3.46006 6.49342 3.46338 6.46008 3.47004C6.42675 3.47671 6.40008 3.48337 6.38008 3.49004C6.36008 3.50337 6.34673 3.51672 6.34006 3.53005C6.3334 3.54339 6.33008 3.55671 6.33008 3.57004C6.33008 3.60338 6.33674 3.62339 6.35007 3.63005C6.37007 3.64339 6.39674 3.65005 6.43008 3.65005Z" fill="#FCFCFC"/>
<path d="M7.3604 4.04006C7.34707 4.06006 7.33706 4.07341 7.3304 4.08008C7.31706 4.08674 7.29705 4.09006 7.27039 4.09006H7.0804L7.25039 3.74006L6.90039 2.94006H7.1304C7.1504 2.94006 7.16706 2.94341 7.1804 2.95007C7.18706 2.95674 7.19372 2.96674 7.20039 2.98008L7.34038 3.36008C7.35371 3.39342 7.36706 3.42675 7.3804 3.46008C7.3804 3.44675 7.38371 3.43008 7.39038 3.41008C7.39705 3.39675 7.40373 3.38008 7.4104 3.36008L7.54038 2.98008C7.54705 2.96674 7.55705 2.95674 7.57039 2.95007C7.58372 2.94341 7.59707 2.94006 7.6104 2.94006H7.82039L7.3604 4.04006Z" fill="#FCFCFC"/>
<path fill-rule="evenodd" clip-rule="evenodd" d="M9.40015 3.81008H9.18015C9.15348 3.81008 9.13347 3.8034 9.12014 3.79006C9.10681 3.7834 9.0968 3.77007 9.09014 3.75007L9.01016 3.54006H8.55015L8.47014 3.75007C8.47014 3.76341 8.46014 3.77673 8.44014 3.79006C8.4268 3.8034 8.40682 3.81008 8.38015 3.81008H8.16016L8.63015 2.58008H8.93015L9.40015 3.81008ZM8.61016 3.34006H8.94014L8.83015 3.01008C8.82348 2.98342 8.81348 2.95674 8.80015 2.93008C8.79348 2.90341 8.78347 2.8734 8.77014 2.84006C8.76347 2.8734 8.75681 2.90341 8.75015 2.93008C8.73681 2.96341 8.72681 2.99008 8.72014 3.01008L8.61016 3.34006Z" fill="#FCFCFC"/>
<path fill-rule="evenodd" clip-rule="evenodd" d="M9.79097 3.40007V3.81008H9.50098V2.58008H9.94097C10.0276 2.58008 10.101 2.59008 10.161 2.61008C10.221 2.63008 10.271 2.66007 10.311 2.70007C10.351 2.73341 10.381 2.77674 10.401 2.83008C10.421 2.87674 10.431 2.92674 10.431 2.98008C10.431 3.04674 10.421 3.10341 10.401 3.15007C10.381 3.20341 10.351 3.24674 10.311 3.28008C10.271 3.32008 10.221 3.35007 10.161 3.37007C10.0943 3.39007 10.021 3.40007 9.94097 3.40007H9.79097ZM9.79097 3.19006H9.93098C10.011 3.19006 10.0643 3.17008 10.091 3.13008C10.1243 3.09674 10.141 3.04674 10.141 2.98008C10.141 2.95341 10.1376 2.93008 10.131 2.91008C10.1243 2.88342 10.111 2.86341 10.091 2.85007C10.0776 2.83007 10.0576 2.81675 10.031 2.81008C10.0043 2.80342 9.97098 2.80007 9.93098 2.80007H9.79097V3.19006Z" fill="#FCFCFC"/>
<path fill-rule="evenodd" clip-rule="evenodd" d="M10.8601 3.40007V3.81008H10.5801V2.58008H11.0101C11.0967 2.58008 11.1734 2.59008 11.2401 2.61008C11.3001 2.63008 11.3501 2.66007 11.3901 2.70007C11.4301 2.73341 11.4601 2.77674 11.4801 2.83008C11.5001 2.87674 11.5101 2.92674 11.5101 2.98008C11.5101 3.04674 11.5001 3.10341 11.4801 3.15007C11.4601 3.20341 11.4301 3.24674 11.3901 3.28008C11.3501 3.32008 11.2967 3.35007 11.2301 3.37007C11.1701 3.39007 11.0967 3.40007 11.0101 3.40007H10.8601ZM10.8601 3.19006H11.0101C11.0834 3.19006 11.1367 3.17008 11.1701 3.13008C11.2034 3.09674 11.2201 3.04674 11.2201 2.98008C11.2201 2.95341 11.2167 2.93008 11.2101 2.91008C11.1967 2.88342 11.1834 2.86341 11.1701 2.85007C11.1501 2.83007 11.1267 2.81675 11.1001 2.81008C11.0734 2.80342 11.0434 2.80007 11.0101 2.80007H10.8601V3.19006Z" fill="#FCFCFC"/>
</svg>
