<svg width="114" height="94" viewBox="0 0 114 94" fill="none" xmlns="http://www.w3.org/2000/svg">
<path d="M6.79678 5.89316C0.660705 24.3017 8.55037 27.8093 13.8099 35.6987L5.04404 33.9459C4.16746 44.4651 12.0563 52.3536 19.9455 54.9833C18.1923 56.7365 14.6856 56.737 12.9324 57.6136C16.4388 69.0093 25.205 71.6395 33.0942 73.3927C24.3284 80.4055 13.8099 82.1574 0.661133 83.034C34.8478 103.196 76.9234 91.7995 94.455 58.4889C104.974 39.2038 100.592 27.808 104.098 23.4251C106.728 19.0421 110.233 19.0438 113.739 12.031L102.346 14.6591C105.852 12.0293 109.358 8.52466 111.111 3.26509C104.975 5.01828 99.7158 10.2761 93.5797 5.89316C88.3202 2.38678 83.9364 -0.243002 75.1706 1.51019C60.2687 3.26338 55.8862 15.5366 55.8862 28.6855C25.2059 30.4387 12.9329 11.1527 6.79678 5.89316Z" fill="white"/>
</svg>
