<svg width="106" height="77" viewBox="0 0 106 77" fill="none" xmlns="http://www.w3.org/2000/svg">
<path fill-rule="evenodd" clip-rule="evenodd" d="M3.37289 11.1739C7.7558 -1.09838 21.7811 0.655235 38.4362 0.655235C53.3381 0.655235 69.1161 0.653951 84.018 1.53055C101.55 2.40714 104.179 7.66628 105.055 25.1982C107.685 79.5471 100.673 76.042 66.4864 76.9186C52.4611 76.9186 36.6826 76.9177 22.6573 76.0411C4.24905 75.1645 2.49674 70.782 1.62016 52.3735C0.743575 41.8544 -0.133435 19.9399 3.37289 11.1739ZM41.9416 51.496C47.2011 50.6194 65.6102 40.9782 69.1165 37.4718C66.4868 34.842 46.3254 24.322 42.8191 23.4454L41.9416 51.496Z" fill="white"/>
</svg>
